<?xml version="1.0" encoding="UTF-8"?>
<!DOCTYPE svg PUBLIC "-//W3C//DTD SVG 1.1//EN" "http://www.w3.org/Graphics/SVG/1.1/DTD/svg11.dtd">
<!-- Creator: CorelDRAW 2020 (64-Bit) -->
<svg xmlns="http://www.w3.org/2000/svg" xml:space="preserve" width="470px" height="200px" version="1.1" style="shape-rendering:geometricPrecision; text-rendering:geometricPrecision; image-rendering:optimizeQuality; fill-rule:evenodd; clip-rule:evenodd"
viewBox="0 0 470 200"
 xmlns:xlink="http://www.w3.org/1999/xlink"
 xmlns:xodm="http://www.corel.com/coreldraw/odm/2003">
 <defs>
  <style type="text/css">
   <![CDATA[
    .fil10 {fill:#339966}
    .fil8 {fill:#343C6B}
    .fil5 {fill:#44AD51}
    .fil1 {fill:#5DBEEC}
    .fil3 {fill:#6457A0}
    .fil7 {fill:#B84843}
    .fil4 {fill:#EA5746}
    .fil9 {fill:#EB6240}
    .fil6 {fill:#F18A37}
    .fil2 {fill:#FFE205}
    .fil0 {fill:white}
    .fil11 {fill:#5DBEEC;fill-rule:nonzero}
   ]]>
  </style>
 </defs>
 <g id="Слой_x0020_1">
  <metadata id="CorelCorpID_0Corel-Layer"/>
  <path class="fil0" d="M35.19 199.26l360.28 0c45.47,-6.63 37.89,-63.4 9.35,-76.05 22.54,-50.92 -20.26,-100.44 -64,-81.54 -10.19,-30.22 -47.07,-33.51 -61.92,-3.88 -39.47,-48.27 -96.63,-46.34 -128.25,-0.09 -14.36,-28.64 -48.04,-28.03 -61.92,3.88 -46.73,-20.02 -85.83,37.29 -63.99,81.54 -24.44,4.12 -43.67,64.43 10.45,76.14l0 0z"/>
  <path class="fil1" d="M41.5 193.47l345.04 0c43.55,-5.99 36.29,-57.34 8.96,-68.79 21.59,-46.06 -19.4,-90.85 -61.29,-73.75 -9.76,-27.34 -45.08,-30.32 -59.3,-3.52 -37.81,-43.66 -92.55,-41.91 -122.83,-0.08 -13.76,-25.9 -46.01,-25.36 -59.3,3.51 -44.76,-18.11 -82.2,33.73 -61.29,73.76 -23.41,3.73 -41.83,58.29 10.01,68.87l0 0z"/>
  <path class="fil0" d="M44.42 194.13l337.44 0c42.58,-5.71 35.49,-54.57 8.75,-65.46 21.12,-43.83 -18.97,-86.45 -59.93,-70.18 -9.55,-26.01 -44.09,-28.85 -58,-3.34 -36.97,-41.55 -90.5,-39.89 -120.12,-0.08 -13.45,-24.65 -44.99,-24.13 -57.99,3.34 -43.77,-17.23 -80.39,32.09 -59.94,70.18 -22.89,3.55 -40.9,55.47 9.79,65.54l0 0z"/>
  <g id="_2370173942480">
   <path class="fil2" d="M353.77 81.66c0.19,-3.33 2.15,-4.39 5.09,-5.07l1.08 1.63c-1.09,2.34 -3.33,2.83 -6.17,3.44l0 0zm6.63 -6.69c3.16,-1.53 6.11,-5.3 9.7,-6.28 -0.94,2.43 -6.19,7.45 -8.32,8.54 -1.07,-0.92 -0.83,-0.77 -1.38,-2.26l0 0zm-32.08 -2.51c0.53,-3.65 1.02,-2.65 4.03,-4.06 1.79,-0.84 3.07,-2.14 5.58,-1.49 -0.92,2.23 -6.81,4.88 -9.61,5.55zm-2.53 -8.85c2.23,-1.7 4.88,-2.86 6.38,0.05l-5.06 2.75 -1.32 -2.8zm47.48 7.71c0.53,-3.23 2.73,-4.23 4.18,-6.18 1.48,-2.01 3.01,-3.6 5.82,-4.62 -0.68,5.54 -5.13,8.8 -10,10.8zm-20.47 -2.78c2.28,-4.22 18.62,-13.23 20.73,-13.6 -0.03,1.99 -0.27,1.83 -1.75,2.7l-8.08 4.7c-2.43,1.5 -8.28,5.7 -10.9,6.2zm9.6 -10.61c0.75,-3.27 8.32,-6.89 10.29,-7.04 0.43,1.81 0.48,1.73 -1.34,2.64l-8.95 4.4 0 0zm19.13 -5.86c0.21,-2.62 0.59,-2.81 3.14,-3.3 0.21,3.03 0.08,2.81 -3.14,3.3zm-49.46 4.95c0.59,-3.26 1.19,-2.68 3.93,-4.13 1.68,-0.9 3.02,-2.03 5.17,-2.56 -0.99,2.6 -5.33,5.96 -9.1,6.69zm7.6 0.91c0.36,-3.39 0.73,-3.08 3.25,-4.53 1.29,-0.74 2.84,-1.85 4.52,-2.29 1.02,-0.28 11.18,-2.37 11.36,-2.37 -5.14,2.85 -12.37,8.19 -19.13,9.19l0 0zm-31.4 -3.25c1.85,-0.07 2.8,-0.52 4.46,0.02 -1.19,1.54 -0.82,0.12 -2.08,2.02 -1.36,2.03 -0.1,1.74 -2.25,2.52 -0.7,-0.86 -0.82,1.39 -0.54,-1.35 -0.82,3.55 0,10.03 0.89,13.61 1.35,5.46 2.78,7.22 5.02,10.85 1.44,-0.87 0.82,-0.79 1.93,-1.88l-0.06 4.25c2.79,1.66 3.55,4.2 7.83,5.85l-0.67 -1.95c2.83,0.57 5,1.42 7.74,2.15 2.89,0.79 5.46,0.41 8.05,1.52 11.12,4.76 9.56,-0.27 14.07,-1.28l1.31 2.23c-1.32,1.51 -3.46,1.84 -4.86,3.32 4.05,-0.28 8.31,-0.85 11.72,-2.24 -1.12,-4.26 10.18,-3.67 13.87,-8.65 2.22,-2.99 1.66,-2.52 5.33,-1.92 0.89,-1.51 1.69,-2.82 2.6,-3.85 0.28,-0.32 1.25,-1.25 1.8,-1.47 1.56,-0.66 1.68,-0.44 2.52,0.13 0.74,-0.88 1.36,-1.19 2.18,-2.18 0.6,-0.71 1.29,-1.7 1.97,-2.61 1.38,-1.88 2.38,-3.6 3.16,-6.01 -0.1,-2.64 0.48,-13.41 1.11,-15.14l2.55 -0.07 -0.05 -3.14c2.07,-0.86 -5.06,-6.86 -5.06,-6.86l0.92 -4.73 -3.21 1.21c-0.84,-1.2 -1.16,-2.5 -1.87,-3.68 -1.01,-1.65 -1.9,-1.94 -0.45,-3.4 -10.33,-9.44 -30,-14.03 -47.29,-9.22 0.5,0.77 -0.44,-0.16 0.6,0.49l1.3 0.71c-6.12,-0.1 -7.16,0.8 -10.68,3.52 -0.53,-0.69 -0.07,-0.15 -0.01,-1.48 0,-0.03 0.04,-0.15 0.01,-0.22 -9.62,2.66 -22.21,17.13 -23.86,28.93l0 0z"/>
   <path class="fil2" d="M399.94 48.55l0.32 5.93 0.23 0c0.97,-1.72 1.83,-1.09 5.73,-1.66 15.57,-2.29 27.31,-11.14 40.62,-9.87l-30.07 9.71c6.03,-0.12 33.92,-4.91 41.69,-6.43 3.94,-0.77 4.48,-0.05 5.06,-2.25 -0.98,-1.33 0.11,-0.64 -2.05,-1.14 -1.23,-0.29 -1.64,-0.23 -2.97,-0.23l0.81 -0.55c0.4,-0.51 0.43,-0.06 0.56,-1.27 -3.29,-2.21 -11.97,-0.43 -15.97,-0.46 -11.38,-0.11 -32.65,5.97 -43.96,8.22l0 0z"/>
   <path class="fil2" d="M300.19 67.1c3.03,0.16 4.3,-0.05 5.03,2.47 -3.74,-0.81 -2.75,-1.19 -7.08,-0.27l-22.41 2.78c-5.28,0.72 -24.78,3.09 -27.98,5.22l10.47 0.46c-2.63,0 -8.29,1.25 -11.44,1.79 -2.24,0.38 -1.84,0.21 -2.71,1.86 6.48,1.51 24.37,-3.3 30.99,-4.61 4.82,-0.95 11.05,-1.54 16.09,-2.15 7.71,-0.94 13.17,-3.1 15.51,-3.28l-0.99 -5.38c-2.34,-0.2 -4.07,0.25 -5.48,1.11l0 0z"/>
   <path class="fil2" d="M307.03 50.9l2.15 -5.22c-8.34,0.29 -16.21,-1.05 -24.16,-1.96 -8.25,-0.95 -16.29,-1.03 -24.52,-2.32 0,2.03 0.85,1.67 2.74,1.67 -1.05,2.18 0.61,2.56 2.32,3.15l16.24 3.38c12.72,2.11 14.37,0.7 25.23,1.3l0 0z"/>
   <path class="fil2" d="M375.4 22.08l3.62 1.78c0.97,-3.3 7.37,-11.12 9.6,-12.69 -0.78,2.35 -2.39,4.7 -3.5,6.88 -0.79,1.57 -2.47,5.63 -3.3,6.81 1.35,0.87 2.76,2 4.14,2.5 0.52,-1.77 3.14,-4.35 4.42,-5.88l9.2 -11.8c2.33,-3.18 3.72,-3.59 3.72,-6.77 -1.41,0.11 -1.8,0.34 -2.72,0.92 -1.6,1.01 -0.41,0.91 -2.55,1.36 -0.43,1.16 -2.51,4.1 -3.42,5.47 -3.05,4.61 -7.5,12.1 -11.28,14.59 1.24,-3.48 5.2,-8.66 7.23,-11.82 2.14,-3.33 5.93,-8.14 7.33,-11.44 0.03,-1.46 0.27,-1.27 0.39,-2.73 -3.08,0.71 -2.34,1.95 -6.04,5.36 -1.17,1.08 -1.79,1.33 -2.98,2.5 -3.34,3.3 -7.82,8.56 -10.31,12.51 -1.66,2.62 -0.99,1.31 -3.55,2.45l0 0z"/>
   <path class="fil2" d="M291.98 122.5c-0.05,2 -0.46,2.12 -0.46,4.55 4.54,-1.06 10.99,-13.82 13.49,-18l9.41 -14.31c1.09,-1.64 2.42,-3.31 3.33,-5.11 -0.91,-1.5 -1.78,-1.92 -3.42,-3.19l-1.46 2.16c-2.52,4.68 -12.18,18.62 -15.82,24.36 -2.22,3.52 -3.52,8.11 -5.07,9.54l0 0z"/>
   <path class="fil2" d="M426.57 95.56l-0.98 -0.25 0.98 0.25zm-36.71 -16.43c10.92,2.09 20.63,10.4 28.4,15.61 2.15,1.44 6.98,4.4 10.13,4.47 -0.2,-2.43 -0.8,-2.11 -1.82,-3.65l1.8 -0.51c-0.67,-2.91 -1.3,-2.02 -3.63,-3.14l0.58 1.89c-2.64,-1 -6.03,-4.02 -8.25,-5.64 -2.43,-1.78 -5.23,-3.72 -8.04,-5.18 -2.51,-1.31 -17.93,-8.26 -19.17,-3.85z"/>
   <path class="fil2" d="M321.63 30.06l7.71 -4.85c-3.52,-2.4 -5.73,-3.43 -8.54,-6.86 -1.68,-2.05 -5.29,-6.45 -6.11,-9.51 -3.41,-0.88 -0.08,-1.12 -4,-3.19 -1.1,4.69 0.59,3.94 0.91,7.75 -4.22,0.35 -4.21,3.16 -2.28,4.57l0 -3.2c3.08,0 3.46,0.32 4.55,2.29l7.76 13 0 0z"/>
   <path class="fil2" d="M353.73 131.62c-1.81,-6.26 -2.01,-29.54 -3.81,-32.96l-1.83 0 -1.36 2.38c0,7.93 0.65,12.31 2.01,18.98 1.01,4.97 1.26,10.42 1.87,13.64 0.38,1.97 0.44,2.81 2.5,2.98 0.78,-1.62 0.32,-2.83 0.62,-5.02l0 0z"/>
   <path class="fil2" d="M245.66 77.76c0.43,-2.19 2.38,-2.51 4.83,-3.16 2.17,-0.56 4.54,-1.01 6.81,-1.42 2.76,-0.49 11.82,-1.43 13.56,-2.27l-18.58 -0.91c-4.79,0.26 -13.77,0.86 -17.33,2.74 1.07,4.6 6.54,3.45 10.71,5.02l0 0z"/>
   <path class="fil2" d="M421.09 88.54c1.61,-0.5 8.34,4.13 10.95,4.74 -0.68,-2.54 -6.35,-4.87 -8.47,-6.13 -10.61,-6.3 -10.53,-4.35 -23.14,-13.83 -1.47,-1.1 -3.05,-2.43 -4.43,-3.28 -1.32,1.12 -3.21,4.48 -3.98,6.26 14,0.6 20.77,6.42 29.07,12.24l0 0z"/>
   <path class="fil2" d="M333.36 23.9c-0.75,-1.14 -1.91,-2.72 -2.93,-3.78 -1.31,-1.37 -2.27,-1.85 -3.66,-3.18 -1.64,-1.56 -6.23,-5.29 -8.42,-5.82 1.09,2.72 4.45,6.86 6.17,8.52 1.16,1.11 2.54,2.37 3.9,3.41 1.54,1.17 2.76,2.42 4.94,0.85l0 0z"/>
   <path class="fil2" d="M347.18 98.61c-10.32,-0.09 -13.4,-2.07 -21.9,-4.44 1.44,5.47 18.89,9.41 21.9,4.44z"/>
  </g>
  <path class="fil3" d="M75.71 138.42c-0.02,-2.06 0.83,-2.29 1.83,-3.34 0.08,1.62 -0.33,2.81 -1.83,3.34zm0.04 -19.55c-1.64,-1.44 -1.66,-7.46 -1.6,-10.2 1.18,2.76 1.95,6.81 1.6,10.2zm43.14 -49.71c-1.33,-0.59 -1.78,-1.22 -3.25,-2.08 -0.49,-0.29 -3.13,-1.56 -3.44,-1.79 3.8,-2.64 8.24,1.73 9.77,3.39 1.83,1.96 3.95,6.43 4.82,9.45 -0.43,-0.5 -2.23,-3.08 -2.62,-3.13 -0.62,-0.06 0.32,-0.2 -0.31,0.14 -1.72,0.92 1.37,-0.04 -0.43,0.28 -2.64,-2.05 -0.93,-4.65 -4.54,-6.26l0 0zm-20.82 -5.41c2.01,-0.22 2.92,-1.08 4.69,0.39l-0.56 2.06c-4.94,25.04 -13.18,-17.45 -7.84,16.18l3.48 -0.09c-0.57,0.94 -3.27,2.61 -4.18,3.19 -1.38,0.88 -2.63,2.4 -3.65,3.87 0.9,2.27 -0.88,1.86 1.63,2.61 0.34,-1.76 0.24,-1.26 -0.71,-2.34l0.7 -0.25c0.08,-0.03 0.15,-0.06 0.23,-0.1l1.12 -0.72c0.8,1.88 1.89,0.56 2.88,0.04 1.74,-0.9 2.81,0.43 4.31,-0.71 1.33,-1.01 1.63,-0.44 3.91,-0.44 0.2,2.86 1.38,1.27 2.81,3.08 1.13,1.02 3.7,1.04 6.96,6.24 0.51,0.82 1,2.1 1.52,2.65l2.49 -0.12c-0.75,-0.61 -0.31,-0.18 -0.68,-0.74 -1.29,-1.95 0.39,-1.63 0.78,-1.69l0.51 1.55c0.02,-0.05 0.08,0.21 0.14,0.29l0.98 -0.75c0.03,-0.1 0.13,-0.08 0.19,-0.12l-0.42 -1.2c-0.23,-1.43 -2.62,-3.38 -3.45,-4.71 4.34,1.13 5.78,6.26 6.79,7.37 0.55,-0.97 -0.69,-0.42 0.59,-0.36 1.12,0.06 -0.08,-0.49 0.43,0.26 0.62,0.91 0.41,3.95 0.76,5.08 1.19,-0.67 0.49,0.76 1.26,-1.33 0.46,-1.27 -0.72,-2.55 -0.38,-3.79 1.69,2.48 0.51,2.23 0.44,5.41 -1.31,0.42 -1.28,0.43 -1.18,1.97 1.03,-1.43 0.34,-0.32 0.42,1.83 0.07,1.86 0.51,2.94 -0.27,4.45 -0.71,-0.91 -0.12,-3.81 -0.23,-4.74 -0.27,-2.21 0.1,-0.91 -0.94,-1.75 -0.54,2.74 0.34,6.4 -0.23,9.06 -0.52,-0.46 -0.24,-0.52 -0.7,-1.23 0.11,1.89 0.79,1.65 -0.56,3.75 -0.46,0.71 0.31,1.02 -1.17,1.02 -0.31,0.38 -1.48,3.2 -1.91,3.94 -0.77,1.31 -1.51,2.45 -2.35,3.51 -1.52,1.93 -3.92,4.49 -5.95,5.66 -0.64,1.17 -0.86,0.93 -2.15,1.42l1.84 -1.71c1.16,-1.17 1.68,-1.59 2.78,-2.98 0.79,-0.99 1.41,-2.13 2.18,-3.4 1.52,-2.49 2.47,-4.36 3.66,-7.32 -0.76,-0.38 -0.91,-0.65 -1.16,-1.45l0.32 -5.93 -1.13 0.48 -2.41 7.06c-0.48,1.15 -1.06,2.29 -1.6,3.08 -0.63,0.89 -1.59,1.69 -2.26,2.43 -1.94,2.14 -6.47,7.63 -10.94,7.74 -6.92,0.17 -3.9,-8.75 -3.74,-13.7 0.15,-4.81 -0.09,-12.98 -1.23,-17.29 -0.8,-1.38 0.07,-0.98 -1.19,-1.78 -0.86,0.89 -0.63,0.83 -0.84,2.11l-0.66 0.1c-0.29,0.41 0.19,0.84 -0.5,-0.13 -0.01,-0.02 -0.47,-0.95 -0.5,-1.02 -0.27,-0.59 -0.4,-1.11 -0.61,-1.62 -4.24,-2.32 -1.93,-8.27 0.93,-13.76 -9.06,3.18 8.72,-6.65 5.16,-17.08 -1.53,-4.47 -7.34,-8.23 -18.5,-2.48 -3.04,1.57 -6.36,4.47 -10.4,7.33 -1.36,0.97 -1.57,3.2 -2.38,5.16 0.69,2.13 1.59,4.86 2.18,7.25 0.66,-1.32 -0.53,-1.69 0.92,-2.25 1.31,-0.51 0.87,0.25 2.1,-1 0.92,-0.82 1.08,-1.4 2.58,-1.49 1.8,2.68 0.52,2.75 -0.43,5.29 -0.36,0.93 0.05,0.84 -0.46,1.68l0 4.61c-1.36,0.77 -0.47,0.18 -0.87,1.18 -0.57,0.03 -0.73,-0.02 -0.83,-0.06 -1.06,-0.46 0.87,-0.29 -2.44,-0.69 0.2,15.46 6.46,29.13 4.34,41.45 -0.64,3.73 1.24,20.38 1.55,26.11 0.9,0.68 2.25,1.17 3.6,1.07 0.04,-0.06 0.15,-0.18 0.18,-0.12l0.58 -0.19c0.06,-0.01 0.15,0 0.22,-0.01 0.02,0 1.33,0.12 1.58,0.13l2.32 0c1.63,-0.39 -0.15,0.51 0.62,-0.3 -0.59,-1.29 1.05,-0.69 -1.42,-0.9 -0.43,-0.04 -1.36,0.2 -1.81,0.26 -1.14,0.13 -1.37,0.04 -2.78,-0.53l0.45 -1.14c0.45,-1.03 0.16,-1.57 0.16,-3.16l3.07 -0.06c0.56,0.03 -0.29,0.6 0.59,-0.03 -1.3,0 -2.21,-0.24 -3.24,0.58 0.98,0.82 -1.16,0.32 1.45,0.62l3.15 -0.44c0.07,-0.02 0.15,-0.03 0.22,-0.04 0.08,-0.02 0.5,-0.1 0.59,-0.12 4.94,-0.94 1.87,-0.3 5.72,-0.3 3.49,-0.01 8.36,-1.22 11.51,-0.38 5.04,0.47 7.09,-4.21 11.56,-6.75l11.7 -6.78c-1.14,1.4 -8.7,6.04 -10.16,7.8 2.82,-0.72 8.4,-4.58 10.77,-6.61 0.65,-0.57 2.46,-2.42 3.02,-2.6l2.63 -3c1.4,0.31 0.31,-0.36 1.24,0.65 0.66,0.71 0.35,0.99 1.13,1.48 1.74,-1.21 -0.1,-1.65 2.64,-2.68 0.05,-0.02 0.15,-0.05 0.23,-0.08l0.99 -0.93c0.31,-0.38 0.5,-0.67 0.85,-1.21 0.65,-1.02 1.14,-1.66 1.73,-2.65 3.54,-5.97 5.19,-13.47 4.55,-20.73 -1.19,-13.47 -8.16,-25.61 -15.56,-35.68 -2.6,-3.54 -4.66,-6.38 -8.1,-8.89 -8.04,-5.88 -23.75,-5.43 -29.32,-3.98 0,0 5.6,2.6 7.38,2.08l-0.01 0zm32.25 72.62c-0.63,1.29 -1.08,1.9 -2.14,2.76 -1.63,2.99 -6,6.06 -9.32,8.17 -2.24,1.43 -2.94,2.09 -5.58,3.2 -4.33,1.83 -3.11,1.33 -5.44,3.37 -2.24,1.96 -9.66,4.1 -13.56,4.16 -3.65,0.05 -13.26,-0.21 -15.91,-1.51 3.96,-0.37 7.56,-0.98 11.51,-1.05 1.44,-0.02 9.5,-0.31 10.92,-1.16 -3.15,-0.84 -8.02,0.37 -11.51,0.38 -3.85,0 -0.78,-0.64 -5.72,0.3 -0.09,0.02 -0.51,0.1 -0.59,0.12 -0.07,0.01 -0.15,0.02 -0.22,0.04l-3.15 0.44c-2.61,-0.3 -0.47,0.2 -1.45,-0.62 1.03,-0.82 1.94,-0.58 3.24,-0.58 -0.88,0.63 -0.03,0.05 -0.59,0.03l-3.08 0.06c0,1.59 0.3,2.13 -0.15,3.16l-0.45 1.14c1.41,0.57 1.64,0.66 2.78,0.53 0.45,-0.06 1.38,-0.3 1.81,-0.26 2.47,0.21 0.83,-0.39 1.42,0.9 -0.77,0.81 1.01,-0.09 -0.62,0.3l-2.32 0c-0.25,-0.01 -1.56,-0.13 -1.58,-0.13 -0.07,0.01 -0.16,0 -0.22,0.01l-0.58 0.19c-0.03,-0.06 -0.14,0.06 -0.18,0.12 1.45,1.08 17.23,1.14 20.02,0.86 7.44,-0.75 10.68,-2.26 15.3,-5.83 4.86,-3.76 21.28,-15.52 22.6,-19.73 -0.08,0.03 -0.18,0.06 -0.23,0.08 -2.74,1.03 -0.9,1.47 -2.65,2.68 -0.77,-0.49 -0.46,-0.77 -1.12,-1.48 -0.93,-1.01 0.16,-0.34 -1.24,-0.65l0 0zm-14.95 -36.96c0.31,1.54 1.04,3.22 1.47,5.15 0.51,2.3 0.4,4.15 0.23,6.58l1.13 -0.48 -0.32 5.93c0.25,0.8 0.39,1.07 1.16,1.45 0.89,-3.73 0.62,-10.18 0.28,-14.33 -0.12,-1.51 -0.66,-2.73 -0.85,-4.31 0.88,0.51 0.1,-0.27 0.95,0.85 0.05,0.08 0.46,0.84 0.52,0.95 3.73,7.23 2.42,10.06 1,17.72 1.48,0 0.71,-0.31 1.17,-1.02 1.35,-2.1 0.67,-1.86 0.56,-3.75 0.46,0.71 0.18,0.77 0.7,1.23 0.57,-2.66 -0.31,-6.32 0.23,-9.06 1.04,0.84 0.67,-0.46 0.94,1.75 0.11,0.93 -0.48,3.83 0.23,4.74 0.78,-1.51 0.34,-2.59 0.27,-4.45 -0.08,-2.15 0.61,-3.26 -0.42,-1.83 -0.1,-1.54 -0.13,-1.55 1.18,-1.97 0.07,-3.18 1.25,-2.93 -0.44,-5.41 -0.34,1.24 0.84,2.52 0.38,3.79 -0.77,2.09 -0.07,0.67 -1.26,1.33 -0.35,-1.13 -0.14,-4.17 -0.76,-5.08 -0.51,-0.75 0.69,-0.2 -0.43,-0.26 -1.28,-0.06 -0.04,-0.61 -0.59,0.36 0.4,1.87 1.13,3.61 1.15,5.55 -0.6,-1.15 -1.29,-3.11 -1.9,-4.5 -0.76,-1.74 -1.18,-3.13 -2.59,-3.71l0.42 1.2c-0.06,0.04 -0.16,0.02 -0.19,0.12l-0.98 0.75c-0.06,-0.08 -0.12,-0.34 -0.14,-0.29l-0.51 -1.55c-0.39,0.06 -2.07,-0.26 -0.78,1.69 0.37,0.56 -0.07,0.13 0.68,0.74l-2.49 0.12 0 0zm-25.36 -10.06c-2.19,5.26 0.47,6.15 2.19,11.54l0.66 -0.1c0.21,-1.28 -0.02,-1.21 0.84,-2.11 1.26,0.8 0.39,0.4 1.19,1.78 -0.3,-2.46 -2.18,-8.22 -1.99,-9.9 1.54,-0.97 4.28,-1.27 6.66,-1.29 3.34,-0.02 4.56,0.67 7.33,1.25 -1.43,-1.81 -2.61,-0.22 -2.81,-3.08 -2.28,0 -2.58,-0.57 -3.91,0.44 -1.5,1.14 -2.57,-0.19 -4.31,0.71 -0.99,0.52 -2.08,1.84 -2.88,-0.04l-1.12 0.72c-0.08,0.04 -0.15,0.07 -0.23,0.1l-0.7 0.25c0.95,1.08 1.05,0.59 0.71,2.34 -2.51,-0.75 -0.73,-0.34 -1.63,-2.61l0 0z"/>
  <path class="fil4" d="M154.87 133.24c-0.41,-0.87 -0.43,-1.62 0.29,-2.35 0.63,0.63 1.62,2.66 -0.29,2.35zm47.06 -15.7l-0.32 1.71c-0.42,-0.32 -0.18,0.44 -0.69,-0.73 -0.2,-0.45 -0.16,-0.63 -0.21,-0.96 0.24,-1.64 -0.5,-1.83 -0.33,-3.93 1.82,0.39 1.33,2.11 1.55,3.91zm-15.2 -7.31c0.45,-1.39 1.72,-1.81 3.08,-2.18 -0.15,1.1 -0.2,0.97 -0.87,1.56 -1.01,0.9 -0.65,0.73 -2.21,0.62l0 0zm-30.38 -9.48l0.44 -2.59c0.87,0.49 1.07,1.42 1.37,2.59 1.99,0.96 -1.63,16.13 -1.61,16.23 -0.48,-2.95 -0.58,-5.46 -0.25,-8.33 0.26,-2.35 -0.41,-2.53 -0.44,-4.09 -0.02,-0.78 0.29,-3.09 0.49,-3.81l0 0zm52.5 -5.76c-2.03,-1 -2.06,-4.57 -3.66,-5.52 1.26,0.08 1.83,0.94 2.51,1.85 1.07,1.42 1.33,1.21 1.15,3.67l0 0zm-45.11 -10.35c1.86,-0.76 4.35,1.23 5.01,2.51 1.7,3.31 0.62,17.41 -0.4,20.89 -0.03,0.09 0,1 -0.19,0.48 -0.01,-0.04 -0.06,0.16 -0.1,0.23 -0.15,-2.35 -0.43,-4.6 -0.55,-6.82 -0.12,-2.32 0.37,-4.75 0,-7.04 -0.21,-1.35 -0.55,-1.36 -0.62,-2.91 -0.06,-1.37 0.1,-1.91 -0.25,-3.31 -0.93,-3.78 -1.44,-2.36 -2.9,-4.03l0 0zm-13.78 52.96c0.47,1.8 -0.33,5.09 -0.62,6.99 -1.03,6.57 -1,2.29 -2.09,6.57 1.73,-0.24 1.15,-0.61 1.9,-0.11 0.19,0.12 0.12,0.21 0.58,0.49l1.22 0.58c1.11,-1.03 5.26,-3.2 7.02,-4.03 0.61,-0.29 1.9,-0.68 2.18,-1.25 0.05,-0.13 0.08,-0.7 0.29,-0.95l1.75 0.42c0.34,-0.13 0,0.11 0.65,-0.37l11.24 -10.45c1.77,-1.57 11.42,-10.23 12.39,-10.56 0.33,-0.69 -0.09,-0.22 0.54,-0.85 0.16,-0.16 0.39,-0.28 0.67,-0.49 0.48,-0.37 0.8,-0.67 1.18,-1.01 0.54,-0.98 0.83,-1.22 2.03,-1.83 -1.09,1.99 -0.84,1.68 -1.77,2.14 -0.66,0.72 -0.78,1.18 -1.88,2.03 -0.37,0.28 -0.16,0.13 -0.6,0.4l0.01 0.61 0.21 0.9c-0.56,0.45 -2.62,2.16 -0.29,1.95l1.47 -0.56c1.2,-0.4 6.47,-6.83 7.6,-8.4 0.91,-1.27 1.46,-2.87 2.95,-2.09 1.01,0.85 -0.29,4.09 -0.51,5.1 -1,4.61 -2.07,11.06 -3.16,15.26 -1.19,4.55 -3.89,13.68 -3.44,18.34 0.08,0.74 0.25,1.78 0.81,2.24 2.34,-0.48 -0.47,1.02 2.74,1.28 0.63,-1.08 2.83,2.24 3.73,1.6 0.77,-0.55 6.31,-3.65 7.1,-5.8 6.23,-9.14 1.45,-20.99 5.87,-27.74 1.51,-7.82 1.31,-11.88 2.06,-19.1l0.7 -6.73c-0.52,-2 -0.76,-3.15 -1.17,-5.36 -0.32,-1.78 -0.47,-4.12 -1.3,-5.44l-0.11 0.48c-0.69,-2.52 -2.95,-4.34 -5.45,-5.47 -3.01,-1.37 -5.91,-0.94 -8.54,0.55 -4.09,2.3 -2.82,4.69 -3.95,6.91 -0.7,1.4 -1.19,1.96 -1.91,3.63 -3.38,7.88 -4.57,9.2 -11.74,15.82 -2.29,2.12 -3.39,3.02 -5.4,5.44 -1.25,1.51 -3.03,2.6 -4.54,3.7 -3.97,2.88 -0.99,-8.67 -0.3,-13.45 0.78,-5.4 1.85,-2.22 1.47,-14.11 -0.04,-0.98 -0.27,-6.77 -0.43,-7.14 -0.35,-0.86 -2.81,-3.81 -3.59,-4.31 -2.58,-1.65 -10.65,-3.64 -12.88,-1.05 -0.66,1.82 0.2,4.9 -0.2,7.1 -0.45,2.45 -1.2,3.86 -1.2,6.58 0.01,7.75 0.86,14.01 -0.5,21.64 -0.47,2.62 -0.46,4.24 -0.57,7.1 -0.22,6.23 -2.65,10.73 -2.22,12.8zm12.23 8.71l-1.75 -0.42c-0.21,0.25 -0.24,0.82 -0.29,0.95 0.89,0.35 0.53,-0.2 0.23,0.43l-1.74 1.51c-0.89,0.65 -1.76,1.01 -2.76,1.65 -1.71,1.1 -3.02,2.44 -5.96,2.7l1.03 -1.01 -1.22 -0.58c-0.46,-0.28 -0.39,-0.37 -0.58,-0.49 -0.75,-0.5 -0.17,-0.13 -1.9,0.11 1.09,-4.28 1.06,0 2.09,-6.57 0.29,-1.9 1.09,-5.19 0.62,-6.99 -0.31,0.39 -0.01,-0.19 -0.37,0.68l-0.38 1.61c-0.14,0.88 -0.21,1.75 -0.35,2.64 -0.79,4.94 -3.71,12.06 -1.27,14.45 2.21,2.15 7.74,0.1 9.45,-1.01 2.7,-1.75 4.04,-3.47 6.49,-5.25 4.99,-3.65 8.19,-6.64 12.51,-10.93 1.07,-1.07 1.54,-1.95 2.72,-3.15 1.29,-1.31 7.79,-4.62 9.28,-8.42l-1.47 0.56c-2.33,0.21 -0.27,-1.5 0.28,-1.95l-0.2 -0.9c-1.43,0.76 -2.47,2.46 -3.51,3.67 -3.43,3.93 -7.51,6.84 -10.55,10.27 -1.44,1.62 -1.61,2.35 -3.26,3.77 -1.91,1.65 -10.23,8.68 -11.6,9.07 0.71,-2.04 3.44,-4.18 4.46,-6.4l0 0z"/>
  <path class="fil5" d="M324.1 147.79l0.17 0.4c1.92,-2.42 3.01,-4.12 4.27,-6.98l1.16 -2.75c0.02,-0.04 0.08,-0.13 0.13,-0.19 0.05,3.72 -1.04,4.39 -2.08,7.1 -1.03,2.7 -2.24,3.31 -4.03,4.89 -0.51,0.71 0.45,0.1 -0.7,0.64 -0.04,0.02 -0.95,0.26 -1.06,0.3 -0.65,1.6 -2.91,4.42 -3.88,5.31 -1.53,1.42 -3.56,2.73 -6.28,3.35 -6.5,1.49 -10.69,-0.95 -15.38,-3.12 1.44,-0.88 1.67,-0.71 3.21,-0.7 2.55,0 1.12,-0.05 2.85,1.09 -0.1,1.22 -0.17,0.47 -0.26,0.85l-0.09 0.56c-0.01,0.03 -0.02,0.12 -0.01,0.18 2.96,0.94 7.05,0 9.71,-0.83 6.04,-1.89 6.01,-5.33 7.89,-8.24 0.71,-1.11 1.39,-2.03 2.15,-3.43 1.5,-2.77 3.7,-4.15 5.05,-6.12 0,-1.04 -0.17,-2.24 -0.08,-3.22 0.14,-1.52 0.55,-1.28 0.32,-3.16 -0.21,-1.66 0.63,-3.66 1.58,-4.61 2.11,3.51 1,5.09 -0.88,9.62l-2 4.46c-0.41,0.91 -1.68,4.07 -1.76,4.6l0 0zm6.33 -23.22c-0.02,-1.7 0.34,-3.52 1.91,-3.72 0.22,1.88 -0.91,2.99 -1.91,3.72zm-29.33 15.96l-0.05 -0.87c-1.54,-0.46 -3.06,-2.94 -3.4,-4.89 -0.44,-2.6 0.23,-5.21 0.61,-7.7 1.48,-9.51 2.29,-17.81 8.13,-25.61 1.43,-1.91 3.36,-2.54 6.17,-1.86 11.99,2.92 8.6,7.82 7.88,15.6 -1.11,12.15 -0.81,16.65 -8.1,25.61 -3.2,3.93 -8.1,3.17 -12.62,1.51l0.09 -1.82 1.29 0.03 0 0zm-5.31 0.83c-1.21,-1.94 -2.18,-6.83 -2.22,-9.47 -0.06,-4.03 0.2,-7.6 0.93,-11.24 0.84,-4.23 4.56,-15.6 6.6,-17.49 -0.03,0.26 -3.96,14.17 -4.48,17.22 -0.61,3.57 -0.18,19.28 -0.83,20.98l0 0zm9.44 -44.46c0.5,-1.58 3.14,-1.36 5.11,-1.26 -1.38,1.06 -3.1,1.76 -5.11,1.26zm27.2 14.21l-0.22 1.75c-0.13,-0.02 -0.48,0.01 -0.49,0.01l-0.56 0.22c-0.09,1.66 0.16,-0.08 -0.5,0.63l-1.16 5.73c-1.33,-3 0.77,-10.51 0.47,-14.05l-0.84 1.79c-1.06,-1.99 -0.66,-9.35 -0.95,-12.36 -0.75,-7.74 -3.49,-6.24 -5.29,-8.16 1.51,0.03 2.74,0.33 3.76,0.89 2.38,1.33 0.15,0.54 3.03,1.37 5.67,1.63 2.39,20.68 2.75,22.18zm-35.44 -22.93c0.78,-1.37 2.55,-2.18 4.42,-2.04 -0.34,1.07 -0.43,1.16 -1.73,1.55 -0.91,0.28 -1.8,0.42 -2.69,0.49zm7.72 -6.69c-5.15,1.37 -6.45,0.22 -10.27,6.29 -3.07,4.87 -3.98,13.39 -5.32,19.25 -1.4,6.12 -4.33,9 -5.05,19.87 -0.34,5.16 -0.3,10.83 -0.28,16.13 0.03,11.6 4.32,15.49 14.89,18.16 3.7,0.93 11.51,0.62 15.51,-0.06 8.97,-1.52 11.19,-10.02 15.4,-17.41 3.68,-6.45 4.2,-19.74 4.98,-28.15 0.76,-8.23 1.89,-22.89 -3.02,-28.51 -2.38,-2.73 -8.13,-3.68 -12.01,-4.43 -2.46,-0.47 -5.11,-0.34 -7.49,-0.71 -3.11,-0.48 -4.04,-1.31 -7.34,-0.43l0 0z"/>
  <path class="fil6" d="M229.73 158.32l2.9 0.75c-0.95,0.76 -2.46,0.96 -3.24,0.62 -0.95,-0.41 -0.65,-0.53 -0.88,-0.89 -4.25,-4.46 -0.58,-8.52 -0.58,-8.52 0.03,-0.11 0.12,-0.11 0.18,-0.16 0.02,1.49 -0.93,7.62 1.62,8.2zm8.6 -17.06c-0.26,-0.61 -0.46,-1.4 -0.45,-2.3 0.02,-1.21 0.03,-1.42 0.97,-1.77 0.8,1.37 0.12,2.92 -0.52,4.07zm30.82 -19.51l2.39 3.39 1.02 -0.54c0.52,1.03 0.27,0.2 0.59,1.49l0.36 2.63c0.78,2.51 0.57,7.95 -0.63,9.96 -1.34,6.19 -7.46,12.27 -12.35,15.22 -5.68,3.43 -13.49,5.47 -21.85,5.15 4.63,-0.25 15.59,-3.25 18.47,-5.65 0.41,-1.27 -0.02,-0.75 0.78,-1.17l-1.2 -0.57c-0.09,-0.04 -0.23,-0.01 -0.29,-0.15 -0.06,-0.14 -0.2,-0.08 -0.29,-0.15 1.29,-0.54 1.09,-1.02 2.83,-1.42 2.33,-0.52 7.54,-7.16 8.77,-9.03 0.53,-0.79 1.54,-3.28 2.16,-3.89l0.18 -8.73c-0.76,-0.76 -0.65,-1.82 -0.88,-3.02 -0.21,-1.06 -0.59,-1.8 -0.61,-2.72 -0.66,-0.55 -1.13,-1.18 -1.29,-2.61 1.1,0.6 1.37,0.84 1.84,1.81l0 0zm-22.66 -1.33c8.99,-1 15.36,11.68 9.35,17.95 -1.6,1.67 -7.76,5.33 -11.38,4.71 -5.81,-0.98 -2.34,-11.13 -2.14,-11.43 -0.05,-0.05 -0.15,-0.09 -0.18,-0.11 -0.04,-0.02 -0.14,-0.08 -0.19,-0.11 -0.74,-0.42 -1.63,-0.45 -1.09,-2.98 0.27,-1.28 0.91,-2.16 1.24,-3.39 -1.16,0.48 -0.91,0.55 -2.15,0.58 -0.44,0.44 -0.85,1.42 -1.11,2.45 -0.12,0.43 -0.37,3.36 -0.47,2.24 -0.02,-0.02 -0.63,-0.54 -0.64,-0.55l-0.52 -0.39 -0.69 1.2 -0.3 2.24c-0.62,-0.26 -0.26,0.57 -0.75,-0.79 -0.16,-0.45 -0.14,-0.95 -0.16,-1.4 -0.05,-1.89 -0.39,-2.11 0.18,-4.1 0.48,-1.68 0.25,-3.02 0.58,-4.14 0.97,-3.28 4.65,-3.17 6.16,-3.68l1.22 -0.73c0.36,-0.33 0.14,-0.47 1.73,-0.79 0.81,-0.16 1.08,-0.16 1.88,-0.13 0.09,0.23 0.11,0.41 0.09,0.68l0.27 0.59c-0.61,1.13 -0.62,0.1 -1.15,1.58 0.22,0.36 0.23,-0.04 0.22,0.5l0 0zm-6.73 -13.45l-1.2 0.06c0,2.34 0.29,3.01 -0.88,4.4 0,-0.97 -0.24,-1.66 0.29,-2.05l0 -2.06 -0.98 0 -0.62 0.5c-0.18,-1.63 -0.19,-1.51 0.58,-2.55 0.18,-0.95 -0.05,-0.83 -0.15,-1.76 2.44,0 0.98,0.2 1.47,-0.87 -1.14,-0.01 -1.24,-0.22 -2.02,0.37l-0.46 0.41c-0.61,0.45 0.38,0.06 -0.75,0.39 0.24,-1.16 0.44,-0.99 0.65,-1.54 0.42,-1.09 0.22,-0.73 0.09,-1.72 -0.33,-2.41 0.29,-1.6 -1.01,-3.35l-0.65 -0.87c-0.03,-0.04 -0.1,-0.09 -0.15,-0.12 -3.02,-2.24 -0.98,-0.61 -0.98,-4.16 -1.33,-0.87 -1.61,-2.11 -0.65,-3.83 0.7,-1.26 1.44,-1.93 2.99,-2.44l-0.23 -0.36c-0.03,-0.04 -0.09,-0.16 -0.12,-0.2l-0.23 -0.46c0.74,-0.15 0.77,-0.43 1.55,-0.56 2.12,-0.36 1.86,0.58 4.6,0.61 2.49,0.02 2.15,-0.49 2.35,-0.93 -0.76,0 -6.31,0.16 -6.73,-0.14 -0.72,-0.51 -0.1,-0.42 -0.08,-0.48l6.23 -0.55c0.7,-0.76 0.58,1.09 0.58,-1.18 -5.1,-0.32 -7.98,0.23 -12.28,1.2 -1.77,0.4 -4.21,0.39 -5.9,0.84 -1.61,0.42 -3.12,1.29 -4.65,1.85 -0.02,1.72 0.51,4.56 0.75,6.46 0.78,6.01 2.95,5.2 2.82,11.34 -0.05,2.37 0.08,4.39 0.25,6.75 0.91,13.29 0.87,27.66 0.82,41.32 -0.02,4.63 -2.68,8.74 2.62,10.27 2.61,0.75 9.73,-0.48 12.72,-0.85 8.19,-1.03 13,0.47 22.76,-5.32 1.27,-0.75 7.24,-5.3 7.89,-6.21 3.26,-4.64 5.96,-18.29 4.24,-23.46 -3.51,-10.51 -3.96,-8.61 -8.01,-13.11 -3.86,-4.27 -9.87,-5.5 -16.12,-5.12 -2.76,0.16 -10.81,1.8 -12.47,1.43l-0.07 -1.61 1.14 -0.34zm-2.13 -15.78l0.6 -1.37 1.56 0.08 -1.8 -0.63c-0.25,-3.54 6.76,-0.15 7.01,0 2.23,1.37 3.51,4.4 1.2,6.74 -1.37,1.37 -5.39,3.18 -7.87,2.64 -2.25,-0.48 -2.83,-5.07 -2.09,-7.66l1.39 0.2zm-1.99 -5.29l2.71 -0.17c-0.79,0.96 -2.1,1.63 -3.07,2.62 -0.89,2.03 -0.16,4.79 -0.52,5.8 -1.26,-0.24 -1.28,-0.7 -1.46,-1.98 0,3.55 -2.04,1.92 0.98,4.16 0.04,0.03 0.11,0.08 0.15,0.12l0.65 0.87c1.29,1.75 0.68,0.94 1.01,3.35 0.13,0.99 0.33,0.63 -0.09,1.72 -0.21,0.55 -0.41,0.37 -0.65,1.54 1.12,-0.33 0.13,0.06 0.75,-0.39l0.46 -0.41c0.78,-0.59 0.87,-0.38 2.01,-0.38 -0.49,1.07 0.98,0.88 -1.46,0.88 0.1,0.93 0.33,0.81 0.15,1.76 0.93,-1.5 0.92,-1.97 3.35,-1.69 -0.82,1.95 -2.37,1.42 -3.31,3.74l0.98 0 0 2.05c-0.53,0.4 -0.29,1.09 -0.29,2.06 1.17,-1.39 0.88,-2.07 0.88,-4.4l1.2 -0.06c6.19,-1.95 4.1,-1.08 9.29,-2.1 2.28,-0.45 5.62,-2.93 6.97,-4.61 -0.25,-0.57 0.39,-0.6 -1.29,-0.68 -16.34,5.88 16.16,-0.54 -1.29,-14.16 -1.48,-1.53 -3.77,-2.3 -6.32,-3.1 -1.22,-0.38 -2.6,-0.56 -3.87,-0.8 0,2.28 0.12,0.42 -0.59,1.19l-6.22 0.54c-0.02,0.07 -0.64,-0.02 0.07,0.48 0.43,0.31 5.98,0.15 6.74,0.15 -0.2,0.44 0.14,0.95 -2.35,0.92 -2.74,-0.02 -2.48,-0.96 -4.6,-0.6 -0.78,0.13 -0.81,0.4 -1.55,0.56l0.23 0.46c0.03,0.04 0.09,0.15 0.12,0.2l0.23 0.36 0 0zm9.07 34.38l-3.38 2.99c-0.41,1.04 -0.28,0.61 -0.99,1.54 -0.56,0.72 -0.57,0.76 -0.85,1.71 1.23,-0.04 0.99,-0.1 2.15,-0.58 1.57,-1.61 1.47,-4.01 4.39,-4.64 0.01,-0.54 -0.01,-0.14 -0.22,-0.5 0.53,-1.48 0.53,-0.45 1.14,-1.58l-0.26 -0.59c-0.86,0.53 -0.43,0.29 -1.05,0.91l-0.71 0.6c-0.03,-0.07 -0.15,0.09 -0.22,0.14l0 0z"/>
  <path class="fil7" d="M211.73 128.01c-0.35,3.99 -1.07,8.32 -2.03,12.02 -1.85,7.09 0.24,5.6 -1.89,11.89 -1.07,3.19 -2.38,7.43 -5.05,8.74 -1.78,0.87 -3.8,1.02 -5.98,0.8 -2.2,-0.23 -3.69,-1.06 -4.49,-2.79 -0.56,-0.46 -0.73,-1.5 -0.81,-2.24 -0.45,-4.66 2.25,-13.79 3.44,-18.34 1.09,-4.2 2.16,-10.65 3.16,-15.26 0.22,-1.01 1.52,-4.25 0.51,-5.1 -1.49,-0.78 -2.04,0.82 -2.95,2.09 -1.13,1.57 -6.41,8 -7.6,8.4 -1.49,3.8 -7.99,7.11 -9.28,8.42 -1.18,1.2 -1.65,2.08 -2.72,3.15 -4.32,4.29 -7.52,7.28 -12.51,10.93 -2.45,1.78 -3.79,3.5 -6.49,5.25 -1.71,1.11 -7.24,3.16 -9.45,1.01 -2.44,-2.39 0.48,-9.51 1.27,-14.45 0.14,-0.89 0.21,-1.76 0.35,-2.64l0.38 -1.61c0.36,-0.87 0.06,-0.29 0.37,-0.68 -0.43,-2.07 2,-6.57 2.22,-12.8 0.11,-2.86 0.1,-4.48 0.57,-7.1 1.36,-7.63 0.51,-13.89 0.5,-21.64 0,-2.72 0.75,-4.13 1.2,-6.58 0.4,-2.2 -0.46,-5.28 0.2,-7.1 2.23,-2.59 10.3,-0.6 12.88,1.05 0.78,0.5 3.24,3.45 3.59,4.31 0.16,0.37 0.39,6.16 0.43,7.14 0.38,11.89 -0.69,8.71 -1.47,14.11 -0.69,4.78 -3.67,16.33 0.3,13.45 1.51,-1.1 3.29,-2.19 4.54,-3.7 2.01,-2.42 3.11,-3.32 5.4,-5.44 7.17,-6.62 8.36,-7.94 11.74,-15.82 0.72,-1.67 1.21,-2.23 1.91,-3.63 1.13,-2.22 -0.14,-4.61 3.95,-6.91 2.63,-1.49 5.53,-1.92 8.54,-0.55 2.5,1.13 4.76,2.95 5.45,5.47l0.11 -0.48 0.25 -0.88c0.36,0.94 0.87,1.63 1.26,2.61 1.11,2.84 1.75,6.19 1.35,9.42l-0.39 -0.35 -0.7 6.73c-0.75,7.22 -0.55,11.28 -2.06,19.1l0 0zm-59.72 -38.39c-0.61,3.98 -1.05,5.13 -0.91,9.67 0.33,10.43 0.28,9.9 -0.9,19.66 -0.39,3.2 -0.04,6.35 -0.62,9.61 -0.51,2.79 -1.42,5.55 -2,8.26 -0.61,2.92 -0.96,5.72 -1.62,8.7 -1.1,5 -4.1,13.24 2.78,14.45 6.71,1.18 11.33,-3.47 14.45,-6.06 7.29,-6.08 9.35,-6.8 16.17,-14.61 3.23,-3.71 3.83,-2.75 5.73,-4.53l10.31 -10.68c-0.21,2.73 -1.18,6.63 -1.73,9.26 -0.66,3.15 -1.34,5.78 -2.15,8.73 -1.32,4.81 -3.73,13.66 -0.98,18.08 2.51,3.55 8.67,5.04 13.68,2.27 3.49,-1.93 7.32,-11.45 6.93,-16.84 -0.11,-1.51 0.27,-2.81 0.55,-4.15 1.76,-8.33 1.66,-7.76 2.74,-16.27 0.35,-2.75 1.22,-5.87 1.21,-8.59 -0.05,-8.96 4.26,-23.2 -5.65,-30.78 -4.21,-3.22 -9.98,-3.16 -14.38,0 -4.16,2.99 -1.79,3.56 -4.79,9.29 -0.24,0.46 -0.53,1.04 -0.76,1.57 -0.07,0.17 -0.3,0.74 -0.35,0.83 -4.39,10.32 -5.82,9.1 -14.48,17.48 -1.53,1.58 -2.25,3.01 -4.29,4.02 0.18,-3.87 2.75,-13.95 2.83,-16.18 0.19,-5.12 -0.39,-10.44 -0.14,-13.52 0.14,-1.65 -0.47,-2.46 -0.91,-3.64 -0.05,-0.02 -0.13,-0.14 -0.15,-0.09l-0.28 -0.22c-0.03,-0.03 -0.1,-0.09 -0.13,-0.12l-1.55 -1.96c-3.12,-4.16 -15.19,-5.73 -17.99,-2.32 -1.44,1.76 0.39,6.42 -0.62,8.68l0 0z"/>
  <path class="fil8" d="M81.65 60.22c-2.9,-0.68 -18.9,9.92 -19.33,16.32l3.05 0.74c0.31,-1.14 0.73,-2.38 1.47,-3.35 2.7,-3.52 2.38,-2.79 4.71,-4.9 2.17,-1.71 4.59,-3.29 7.41,-4.67 5.59,-1.86 6.11,-2.2 12.07,-2.72 10.16,-0.83 21.52,-1.45 28.96,3.99 3.44,2.52 5.5,5.36 8.1,8.89 7.4,10.08 14.36,22.22 15.56,35.69 0.64,7.26 -1.01,14.76 -4.55,20.73 -0.59,0.99 -1.08,1.62 -1.73,2.64 -0.35,0.55 -0.54,0.84 -0.85,1.22l-0.99 0.93c-1.32,4.2 -17.75,15.96 -22.6,19.72 -4.62,3.58 -7.86,5.09 -15.3,5.83 -2.79,0.28 -18.57,0.22 -20.02,-0.86 -1.35,0.11 -2.69,-0.39 -3.6,-1.07 -0.31,-5.73 -2.19,-22.38 -1.55,-26.1 2.12,-12.32 -4.13,-25.99 -4.34,-41.45l-0.25 -1c-0.07,-1.04 -0.69,-4.13 -0.35,-5.79l0.04 -0.49c-0.6,-2.39 -1.51,-5.12 -2.19,-7.24l-3.05 -0.74 0.72 1.55c3.35,6.48 2.74,17.41 4.09,25.74 0.71,4.37 1.4,8.61 2.16,12.79 3.06,16.85 0.44,13.51 0.65,20.18 0.19,5.98 1.79,13.15 1.77,20.5 -0.01,3.18 -0.27,3.76 2.76,4.8 1.99,0.69 4.11,0.88 6.29,0.99 4.69,0.23 9.37,0.73 14.08,0.56 11.74,-0.44 14.5,-2.95 21.63,-8.17 15.58,-11.39 31.27,-23.15 29.36,-45.34 -0.58,-6.71 -1.94,-8.73 -2.46,-12.44 -0.33,-0.43 -2.74,-6.72 -3.39,-8.08 -1.23,-2.57 -2.73,-5.33 -4.15,-7.58 -4.29,-6.8 -9.41,-15.33 -16.03,-19.15 -5.9,-3.42 -12.49,-4.26 -19.39,-4.11 -2.25,0.05 -16.63,0.49 -18.76,1.44l0 0zm26.66 62.57c-1.35,1.45 -1.98,2.66 -3.52,3.81 -9.91,7.47 -6.88,-2.34 -6.54,-8.55 0.25,-4.67 -0.09,-9.49 -0.62,-14.06 -0.5,-4.27 -1.76,-8.09 -2.4,-12.07 10.28,-1.77 15.62,2.07 18.51,9.79 1.72,4.61 1.75,7.46 0.1,12.26 -2.22,6.48 -2.22,5.26 -5.53,8.82l0 0zm-13.52 -22.33c1.14,4.31 1.38,12.48 1.23,17.29 -0.16,4.95 -3.18,13.87 3.75,13.7 4.47,-0.11 8.99,-5.6 10.93,-7.74 0.67,-0.74 1.63,-1.54 2.26,-2.43 0.54,-0.79 1.12,-1.93 1.61,-3.08l2.4 -7.06c0.17,-2.43 0.28,-4.28 -0.23,-6.58 -0.43,-1.92 -1.16,-3.61 -1.47,-5.15 -0.52,-0.55 -1.01,-1.83 -1.52,-2.65 -3.25,-5.2 -5.83,-5.22 -6.96,-6.24 -2.77,-0.58 -3.99,-1.27 -7.33,-1.25 -2.37,0.02 -5.12,0.32 -6.65,1.29 -0.2,1.68 1.68,7.44 1.98,9.9l0 0z"/>
  <path class="fil9" d="M243.4 81.4c1.27,0.24 2.66,0.42 3.87,0.8 2.55,0.8 4.85,1.57 6.32,3.1 1.43,1.48 3.54,2.97 4.59,4.79 1.75,3.01 -0.39,7.41 -2.01,10.05 -1.35,1.68 -4.69,4.15 -6.97,4.61 -5.18,1.02 -3.1,0.15 -9.28,2.1l-1.15 0.34 0.07 1.61c1.66,0.37 9.71,-1.28 12.47,-1.44 6.25,-0.37 12.27,0.85 16.12,5.13 4.05,4.5 4.5,2.6 8.01,13.1 1.72,5.17 -0.98,18.83 -4.24,23.47 -0.65,0.91 -6.62,5.46 -7.89,6.21 -9.75,5.79 -14.57,4.29 -22.76,5.31 -2.99,0.38 -10.1,1.61 -12.72,0.85 -5.3,-1.52 -2.64,-5.63 -2.62,-10.26 0.05,-13.66 0.1,-28.04 -0.82,-41.33 -0.17,-2.35 -0.3,-4.37 -0.25,-6.74 0.13,-6.14 -2.03,-5.33 -2.82,-11.35 -0.24,-1.89 -0.77,-4.73 -0.74,-6.46 1.53,-0.56 3.03,-1.42 4.64,-1.84 1.69,-0.45 4.13,-0.45 5.9,-0.84 4.3,-0.98 7.18,-1.53 12.28,-1.21l0 0zm-21.14 0.6c-0.99,1.02 -2.96,1.51 -4.01,2.09 -0.15,1.39 0.63,5.42 0.83,7.28 0.3,2.86 0.76,4.37 1.88,6.6 1.4,2.79 0.99,3.78 1,7.18 0.02,6.79 1.43,17.18 1,23.78 -0.29,4.45 0.31,22.7 -0.22,25.05 -2.51,10.98 6.78,10.17 13.95,9.26 8.47,-1.07 13.41,-0.09 21.89,-3.33 1.72,-0.66 4.95,-2.44 5.86,-2.5l1.9 -1.47c0.65,-0.46 1.1,-0.84 1.64,-1.31 3.91,-3.36 4.9,-2.14 7.56,-10.03 2.58,-7.7 3.49,-11.49 1.73,-20.51 -0.44,-0.68 -1.41,-3.98 -1.99,-5.39 -1.83,-4.45 -3.56,-5.29 -6.83,-8.39 -2.18,-2.07 -3.71,-2.38 -4.53,-3.13 -3.97,-1.35 -5.11,-1.74 -9.93,-2.1 0.8,-1.45 2.99,-1.45 5.27,-5.47l0.64 -0.97c-0.51,-3.65 3.84,-5.67 -1.43,-11.78 -1.42,-1.65 -2.52,-2.24 -4.05,-3.86 -1.5,-1.58 -3.19,-1.58 -5.42,-2.48 -8.05,-3.23 -14.61,-0.5 -20.36,0.25 -1.14,0.15 -2.24,0.2 -3.34,0.41 -0.99,0.2 -2.06,0.84 -3.04,0.82l0 0zm20.79 48.49c0.03,-2.47 2.3,-7.01 3.75,-7.9 5.79,-2.81 16.66,13.29 1.53,17.69 -1.59,0.46 -3.36,0.92 -4.34,-0.29 -0.56,-0.77 -0.33,-5.39 0.05,-6.65 0.43,-1.43 1.3,-0.83 1.29,-2.11 -0.01,-1.33 -1.28,-1.12 -2.28,-0.74l0 0zm-0.8 -5.55c-0.32,1.23 -0.97,2.1 -1.24,3.38 -0.54,2.54 0.35,2.57 1.09,2.99 0.05,0.03 0.15,0.09 0.19,0.11 0.03,0.02 0.13,0.06 0.18,0.11 -0.2,0.29 -3.67,10.45 2.14,11.43 3.62,0.61 9.78,-3.04 11.38,-4.71 6.01,-6.27 -0.36,-18.95 -9.34,-17.95 -2.93,0.63 -2.82,3.03 -4.4,4.64zm-2.62 -35.29c0.68,0.24 1,0.36 1.71,0.53 0.03,0.01 0.91,0.23 0.92,0.23 0.79,0.33 0.37,0.01 0.71,0.51 1.26,0.08 1.22,0.36 1.9,1.34 0.46,0.54 0.42,0.18 0.57,1.17 0.24,1.65 -0.89,0.44 -0.96,2.74 -2.58,-0.56 -2.48,0.37 -2.84,0.95 -1.31,0.13 -2.9,0.05 -3.81,0.41 -0.37,-1.79 -0.84,-0.53 -1.01,-3.09 -0.19,-2.59 -0.02,-1.01 0.65,-3.49l-1.38 -0.2c-0.75,2.59 -0.17,7.18 2.08,7.66 2.48,0.53 6.51,-1.27 7.87,-2.64 2.32,-2.34 1.03,-5.37 -1.2,-6.74 -0.24,-0.16 -7.26,-3.54 -7,0l1.79 0.62 0 0zm5.24 2.61c-0.02,1.79 -0.56,2.46 -2.1,3.15 -0.74,0.34 -3.1,0.78 -3.96,0.83 -1.26,-2.85 -0.62,-2.25 -0.85,-3.98l-0.34 -1.07c-0.02,-0.15 -0.09,-0.17 -0.15,-0.24 -0.67,2.48 -0.84,0.9 -0.65,3.49 0.17,2.56 0.64,1.3 1.01,3.09 0.91,-0.36 2.5,-0.28 3.81,-0.41 0.36,-0.58 0.26,-1.51 2.84,-0.95 0.07,-2.3 1.2,-1.09 0.96,-2.74 -0.15,-0.99 -0.11,-0.63 -0.57,-1.17l0 0z"/>
  <path class="fil10" d="M304.8 81.42c3.3,-0.88 4.23,-0.05 7.34,0.43 2.38,0.37 5.03,0.24 7.49,0.71 3.88,0.75 9.63,1.7 12.01,4.42 4.9,5.63 3.78,20.29 3.02,28.52 -0.78,8.41 -1.3,21.7 -4.98,28.15 -4.21,7.39 -6.43,15.89 -15.4,17.41 -4,0.68 -11.81,0.99 -15.51,0.06 -10.57,-2.67 -14.86,-6.57 -14.9,-18.16 -0.01,-5.3 -0.05,-10.97 0.29,-16.13 0.72,-10.87 3.64,-13.75 5.05,-19.87 1.34,-5.86 2.25,-14.38 5.32,-19.25 3.82,-6.07 5.12,-4.92 10.27,-6.29l0 0zm-17.97 25.03c-1.45,9.15 -5.11,4.87 -5.18,32.11 -0.01,5.71 -0.2,11.74 2.42,16.2 3.2,5.46 6.97,5.58 10.64,7.52 2.77,0.47 5.28,1.74 8.19,1.83 2.95,0.08 6.37,-0.45 9.4,-0.63 6.25,-0.37 10.93,-3.35 12.9,-7.33 1.21,-0.63 2.91,-4.81 3.66,-6.3 1.29,-2.56 2.78,-4.61 3.84,-6.72 1.77,-3.52 2.54,-13.05 3.24,-17.9 1.29,-8.91 3.23,-30.95 -1.17,-37.86 -4.78,-7.52 -17.3,-6.75 -23.66,-8.03 -4.3,-0.86 -5.04,-0.46 -9.09,0.3 -6.48,1.23 -8.82,4.74 -10.96,10.15 -1.88,4.76 -3.75,15.96 -4.23,16.66l0 0zm14.31 33.14l1.22 -0.36c0.09,-2.51 -1.91,-1.95 -2.42,-5.07 -0.34,-2.04 0.31,-4.78 0.58,-6.83 1.53,-11.41 1.59,-13.22 6.45,-22.81 2.21,-4.34 5.47,-3.49 10.15,-0.97 3.67,1.99 1.64,7.49 1.21,11.54 -0.44,4.12 -0.87,8.8 -1.77,12.77 -0.97,4.29 -5.07,12.49 -8.7,13.29 -2.91,0.64 -4.66,-0.6 -6.67,-0.69l-1.3 -0.03 -0.08 1.82c4.52,1.66 9.42,2.42 12.61,-1.51 7.29,-8.96 7,-13.46 8.11,-25.61 0.72,-7.78 4.11,-12.68 -7.88,-15.6 -2.81,-0.68 -4.74,-0.05 -6.17,1.86 -5.84,7.8 -6.65,16.1 -8.13,25.61 -0.38,2.49 -1.05,5.1 -0.61,7.7 0.34,1.95 1.86,4.43 3.4,4.89l0 0z"/>
  <path class="fil11" d="M74.93 174.24l7.14 0c1.56,0 2.72,0.37 3.5,1.11 0.77,0.75 1.16,1.8 1.16,3.17 0,1.4 -0.43,2.5 -1.27,3.29 -0.84,0.79 -2.14,1.19 -3.87,1.19l-2.35 0 0 5.14 -4.31 0 0 -13.9zm4.31 5.94l1.05 0c0.84,0 1.42,-0.14 1.76,-0.43 0.34,-0.29 0.5,-0.65 0.5,-1.11 0,-0.44 -0.14,-0.8 -0.43,-1.1 -0.29,-0.31 -0.85,-0.46 -1.65,-0.46l-1.23 0 0 3.1 0 0zm22.01 7.96l0 -13.9 -7.16 0c-1.32,0 -2.34,0.12 -3.03,0.35 -0.71,0.22 -1.27,0.65 -1.7,1.26 -0.43,0.62 -0.64,1.37 -0.64,2.26 0,0.77 0.16,1.43 0.49,1.99 0.33,0.57 0.78,1.02 1.36,1.37 0.36,0.22 0.87,0.41 1.51,0.55 -0.52,0.17 -0.89,0.34 -1.12,0.51 -0.16,0.12 -0.39,0.36 -0.69,0.73 -0.29,0.38 -0.5,0.66 -0.59,0.87l-2.09 4.01 4.85 0 2.29 -4.23c0.29,-0.56 0.55,-0.91 0.78,-1.07 0.31,-0.22 0.66,-0.33 1.05,-0.33l0.38 0 0 5.63 4.31 0 0 0zm-4.31 -8.25l-1.81 0c-0.2,0 -0.58,-0.06 -1.14,-0.19 -0.29,-0.06 -0.52,-0.2 -0.7,-0.44 -0.18,-0.23 -0.27,-0.5 -0.27,-0.8 0,-0.46 0.15,-0.8 0.43,-1.04 0.29,-0.24 0.82,-0.36 1.6,-0.36l1.89 0 0 2.83zm21.74 11.28l-3.46 0 0 -3.03 -8.86 0 0 3.03 -3.46 0 0 -6.23 1.43 0c0.81,-2.25 1.21,-4.77 1.21,-7.6l0 -3.1 11.65 0 0 10.7 1.49 0 0 6.23zm-5.78 -6.23l0 -7.28 -3.46 0 0 0.18c0,1.92 -0.32,4.29 -0.97,7.1l4.43 0zm6.92 -3.74c0,-2.27 0.63,-4.03 1.9,-5.3 1.26,-1.25 3.02,-1.89 5.28,-1.89 2.31,0 4.1,0.62 5.34,1.86 1.26,1.24 1.88,2.98 1.88,5.22 0,1.62 -0.27,2.95 -0.81,3.99 -0.55,1.04 -1.34,1.85 -2.38,2.43 -1.03,0.58 -2.32,0.86 -3.87,0.86 -1.56,0 -2.85,-0.24 -3.88,-0.75 -1.03,-0.5 -1.86,-1.28 -2.5,-2.36 -0.64,-1.08 -0.96,-2.44 -0.96,-4.06l0 0zm4.29 0.01c0,1.4 0.27,2.41 0.78,3.02 0.53,0.61 1.24,0.92 2.14,0.92 0.92,0 1.64,-0.3 2.15,-0.9 0.5,-0.6 0.75,-1.67 0.75,-3.23 0,-1.31 -0.26,-2.26 -0.79,-2.86 -0.53,-0.61 -1.25,-0.9 -2.15,-0.9 -0.87,0 -1.57,0.3 -2.09,0.91 -0.52,0.61 -0.79,1.63 -0.79,3.04zm12.38 -6.97l5.66 0 2.16 8.46 2.17 -8.46 5.64 0 0 13.9 -3.51 0 0 -10.59 -2.72 10.59 -3.18 0 -2.71 -10.59 0 10.59 -3.51 0 0 -13.9zm46.41 0l8.06 0c1.33,0 2.36,0.34 3.08,1 0.72,0.66 1.08,1.49 1.08,2.46 0,0.83 -0.26,1.53 -0.77,2.12 -0.34,0.39 -0.84,0.7 -1.5,0.93 1,0.24 1.73,0.65 2.2,1.24 0.47,0.58 0.7,1.32 0.7,2.2 0,0.72 -0.16,1.37 -0.5,1.94 -0.33,0.58 -0.79,1.03 -1.37,1.37 -0.36,0.2 -0.91,0.36 -1.63,0.45 -0.97,0.13 -1.61,0.19 -1.93,0.19l-7.42 0 0 -13.9 0 0zm4.33 5.46l1.88 0c0.67,0 1.14,-0.12 1.4,-0.35 0.26,-0.23 0.39,-0.57 0.39,-1 0,-0.4 -0.13,-0.72 -0.39,-0.95 -0.26,-0.23 -0.72,-0.34 -1.37,-0.34l-1.91 0 0 2.64zm0 5.45l2.19 0c0.75,0 1.27,-0.13 1.57,-0.39 0.31,-0.26 0.46,-0.61 0.46,-1.05 0,-0.42 -0.15,-0.75 -0.45,-1 -0.3,-0.24 -0.83,-0.37 -1.59,-0.37l-2.18 0 0 2.81zm19.31 0.7l-4.87 0 -0.7 2.29 -4.38 0 5.22 -13.9 4.71 0 5.21 13.9 -4.5 0 -0.69 -2.29zm-0.92 -3.01l-1.51 -4.99 -1.53 4.99 3.04 0zm7.42 -8.6l5.66 0 2.16 8.46 2.17 -8.46 5.64 0 0 13.9 -3.52 0 0 -10.59 -2.71 10.59 -3.18 0 -2.71 -10.59 0 10.59 -3.51 0 0 -13.9zm31.65 0l0 13.9 -4.04 0 0 -7.63 -5.16 7.63 -4.07 0 0 -13.9 4.05 0 0 7.69 5.21 -7.69 4.01 0zm-74.11 8.22l3.77 1.13c-0.26,1.05 -0.65,1.94 -1.2,2.64 -0.55,0.71 -1.22,1.25 -2.03,1.61 -0.8,0.36 -1.83,0.53 -3.07,0.53 -1.52,0 -2.75,-0.22 -3.71,-0.65 -0.96,-0.44 -1.78,-1.21 -2.48,-2.32 -0.7,-1.1 -1.04,-2.52 -1.04,-4.24 0,-2.3 0.61,-4.06 1.83,-5.3 1.22,-1.23 2.96,-1.85 5.2,-1.85 1.75,0 3.13,0.36 4.13,1.06 0.99,0.71 1.74,1.8 2.23,3.27l-3.78 0.84c-0.14,-0.43 -0.28,-0.73 -0.43,-0.93 -0.24,-0.33 -0.53,-0.58 -0.88,-0.75 -0.34,-0.18 -0.73,-0.27 -1.16,-0.27 -0.98,0 -1.73,0.39 -2.24,1.17 -0.4,0.59 -0.59,1.5 -0.59,2.74 0,1.53 0.23,2.59 0.7,3.16 0.47,0.57 1.12,0.85 1.97,0.85 0.82,0 1.45,-0.23 1.86,-0.69 0.42,-0.46 0.73,-1.13 0.92,-2l0 0zm90.71 1.74l3.67 0.41c-0.2,0.77 -0.53,1.43 -0.99,1.99 -0.47,0.56 -1.06,1 -1.78,1.31 -0.71,0.31 -1.62,0.46 -2.73,0.46 -1.07,0 -1.96,-0.1 -2.67,-0.29 -0.71,-0.2 -1.32,-0.53 -1.84,-0.97 -0.5,-0.45 -0.91,-0.97 -1.2,-1.57 -0.29,-0.61 -0.44,-1.4 -0.44,-2.39 0,-1.04 0.18,-1.9 0.54,-2.59 0.25,-0.51 0.61,-0.96 1.06,-1.36 0.45,-0.41 0.91,-0.71 1.38,-0.9 0.76,-0.31 1.72,-0.47 2.9,-0.47 1.65,0 2.89,0.3 3.76,0.89 0.86,0.58 1.47,1.44 1.82,2.57l-3.63 0.49c-0.12,-0.44 -0.32,-0.76 -0.62,-0.98 -0.3,-0.22 -0.71,-0.33 -1.22,-0.33 -0.63,0 -1.15,0.23 -1.55,0.69 -0.39,0.46 -0.59,1.15 -0.59,2.08 0,0.83 0.2,1.46 0.59,1.89 0.39,0.43 0.89,0.64 1.5,0.64 0.5,0 0.93,-0.12 1.27,-0.38 0.35,-0.26 0.6,-0.66 0.77,-1.19l0 0zm20.3 -10.19l0 14.13 -3.9 0 0 -9.24c-0.64,0.47 -1.25,0.86 -1.84,1.16 -0.59,0.29 -1.33,0.57 -2.22,0.84l0 -3.14c1.31,-0.43 2.34,-0.94 3.06,-1.54 0.73,-0.6 1.3,-1.33 1.71,-2.21l3.19 0 0 0zm4.37 11.02l3.84 -0.48c0.1,0.53 0.27,0.91 0.51,1.13 0.25,0.22 0.54,0.33 0.88,0.33 0.63,0 1.11,-0.32 1.46,-0.94 0.25,-0.46 0.44,-1.43 0.56,-2.92 -0.46,0.48 -0.93,0.82 -1.42,1.04 -0.49,0.22 -1.04,0.33 -1.69,0.33 -1.24,0 -2.29,-0.44 -3.15,-1.32 -0.86,-0.89 -1.28,-2.01 -1.28,-3.36 0,-0.93 0.21,-1.76 0.65,-2.52 0.43,-0.76 1.04,-1.34 1.8,-1.73 0.76,-0.38 1.72,-0.58 2.88,-0.58 1.4,0 2.51,0.24 3.35,0.72 0.84,0.47 1.51,1.23 2.01,2.27 0.5,1.04 0.76,2.41 0.76,4.12 0,2.51 -0.53,4.34 -1.59,5.51 -1.05,1.16 -2.52,1.74 -4.39,1.74 -1.11,0 -1.98,-0.12 -2.61,-0.38 -0.64,-0.26 -1.17,-0.63 -1.6,-1.11 -0.42,-0.5 -0.75,-1.11 -0.97,-1.85l0 0zm7.11 -6.2c0,-0.76 -0.19,-1.34 -0.57,-1.77 -0.37,-0.43 -0.84,-0.64 -1.38,-0.64 -0.52,0 -0.94,0.19 -1.28,0.58 -0.34,0.38 -0.51,0.96 -0.51,1.73 0,0.78 0.18,1.37 0.53,1.78 0.35,0.42 0.79,0.63 1.31,0.63 0.55,0 1,-0.21 1.36,-0.6 0.36,-0.4 0.54,-0.97 0.54,-1.71l0 0zm5.83 6.2l3.85 -0.48c0.1,0.53 0.27,0.91 0.51,1.13 0.24,0.22 0.53,0.33 0.88,0.33 0.63,0 1.11,-0.32 1.45,-0.94 0.26,-0.46 0.45,-1.43 0.57,-2.92 -0.46,0.48 -0.93,0.82 -1.42,1.04 -0.49,0.22 -1.04,0.33 -1.69,0.33 -1.24,0 -2.29,-0.44 -3.15,-1.32 -0.86,-0.89 -1.28,-2.01 -1.28,-3.36 0,-0.93 0.21,-1.76 0.65,-2.52 0.43,-0.76 1.04,-1.34 1.8,-1.73 0.76,-0.38 1.72,-0.58 2.88,-0.58 1.4,0 2.51,0.24 3.35,0.72 0.84,0.47 1.51,1.23 2.01,2.27 0.5,1.04 0.76,2.41 0.76,4.12 0,2.51 -0.53,4.34 -1.59,5.51 -1.05,1.16 -2.52,1.74 -4.39,1.74 -1.11,0 -1.98,-0.12 -2.62,-0.38 -0.64,-0.26 -1.16,-0.63 -1.59,-1.11 -0.42,-0.5 -0.75,-1.11 -0.98,-1.85zm7.12 -6.2c0,-0.76 -0.19,-1.34 -0.57,-1.77 -0.37,-0.43 -0.84,-0.64 -1.38,-0.64 -0.52,0 -0.94,0.19 -1.28,0.58 -0.34,0.38 -0.51,0.96 -0.51,1.73 0,0.78 0.18,1.37 0.53,1.78 0.35,0.42 0.79,0.63 1.31,0.63 0.55,0 1,-0.21 1.36,-0.6 0.36,-0.4 0.54,-0.97 0.54,-1.71l0 0zm7.98 1.84c-0.61,-0.32 -1.05,-0.68 -1.32,-1.08 -0.38,-0.55 -0.57,-1.17 -0.57,-1.88 0,-1.16 0.54,-2.11 1.64,-2.85 0.85,-0.56 1.98,-0.85 3.38,-0.85 1.87,0 3.24,0.36 4.12,1.06 0.9,0.71 1.34,1.6 1.34,2.67 0,0.63 -0.18,1.21 -0.54,1.76 -0.26,0.4 -0.68,0.79 -1.26,1.17 0.76,0.36 1.32,0.84 1.69,1.43 0.37,0.59 0.56,1.25 0.56,1.97 0,0.7 -0.16,1.34 -0.48,1.95 -0.33,0.6 -0.72,1.07 -1.18,1.4 -0.46,0.33 -1.04,0.57 -1.73,0.72 -0.7,0.15 -1.44,0.23 -2.22,0.23 -1.47,0 -2.6,-0.17 -3.37,-0.52 -0.78,-0.35 -1.37,-0.86 -1.77,-1.53 -0.4,-0.68 -0.61,-1.43 -0.61,-2.27 0,-0.81 0.19,-1.5 0.57,-2.07 0.38,-0.56 0.96,-1 1.75,-1.31l0 0zm1.74 -2.73c0,0.48 0.15,0.87 0.45,1.16 0.3,0.3 0.7,0.44 1.21,0.44 0.44,0 0.8,-0.14 1.09,-0.43 0.29,-0.29 0.43,-0.67 0.43,-1.13 0,-0.48 -0.15,-0.87 -0.45,-1.17 -0.3,-0.3 -0.68,-0.45 -1.14,-0.45 -0.47,0 -0.86,0.15 -1.15,0.44 -0.3,0.29 -0.44,0.68 -0.44,1.14l0 0zm-0.22 5.98c0,0.61 0.19,1.12 0.57,1.5 0.36,0.39 0.79,0.59 1.27,0.59 0.47,0 0.88,-0.2 1.24,-0.6 0.37,-0.39 0.55,-0.89 0.55,-1.5 0,-0.62 -0.18,-1.12 -0.55,-1.51 -0.37,-0.39 -0.8,-0.59 -1.29,-0.59 -0.48,0 -0.89,0.2 -1.25,0.57 -0.36,0.38 -0.54,0.9 -0.54,1.54zm17.76 -3.04l-4.28 0 0 7.26 -3.87 0 0 -10.07 8.15 0 0 2.81zm1.59 3.4l4.12 0 0 3.86 -4.12 0 0 -3.86z"/>
 </g>
</svg>
