<?xml version="1.0" encoding="utf-8"?>
<!-- Generator: Adobe Illustrator 25.2.3, SVG Export Plug-In . SVG Version: 6.00 Build 0)  -->
<svg version="1.1" id="Слой_1" xmlns="http://www.w3.org/2000/svg" xmlns:xlink="http://www.w3.org/1999/xlink" x="0px" y="0px"
	 width="168px" height="110px" viewBox="0 0 168 110" style="enable-background:new 0 0 168 110;" xml:space="preserve">
<style type="text/css">
	.st0{fill:#2E5560;}
	.st1{fill-rule:evenodd;clip-rule:evenodd;fill:#2E5560;}
	.st2{fill-rule:evenodd;clip-rule:evenodd;fill:#FFED00;}
	.st3{fill:none;stroke:#2E5560;stroke-width:1.7939;stroke-miterlimit:22.9253;}
</style>
<polygon class="st0" points="110.9,37.5 95.8,59.7 107.6,59.7 110.9,59.5 111.1,59.7 110.9,61.5 107,61.4 95.1,61.4 93.3,61.5 
	93.3,59.9 108.4,37.7 97.1,37.7 94,37.9 93.9,37.6 94.1,35.9 97.6,35.9 109.2,35.9 110.9,35.9 "/>
<path class="st1" d="M34.7,39.5c-6.7,11.8-4.9,25.1,5.8,35.2c10.3,9.7,22.2,9.2,33.6,1.1l6-5l-5.2,5.6c-13.5,11.5-30.1,8.3-40.3-4.2
	c-8.9-11-9.8-22.3-3.4-34.1c0.5-0.7,1.7-1,2.7-0.6C34.9,37.9,35.2,38.8,34.7,39.5"/>
<path class="st0" d="M71.9,49.3c-0.7,3.3-3.6,5.7-7.1,5.7c-4,0-7.2-3.2-7.2-7.2s3.2-7.2,7.2-7.2c2.1,0,4,0.9,5.3,2.3
	c-1.1,0.6-1.8,1.7-1.8,3C68.3,47.9,69.9,49.5,71.9,49.3 M55.7,30c2.4,2.6,5.5,3.8,8.8,4.8l1.8,0.5c0.5,0.2,1,0.3,1.4,0.4
	c0.8,0.2,1.3,0.3,1.3,0.3c-3-2.8-6.9-4-10.7-5.2c-0.5-0.2-1-0.3-1.4-0.5C56.2,30.1,55.7,30,55.7,30z M60.3,36.5l0.1,0.1 M13.8,16.3
	c3,0.6,6.1-0.2,9-1c1.9,0.9,4,1.2,6.1,1.3c2.6,0.1,4.8-0.3,6.8-0.4c1.9-0.1,3.5,0.1,4.7,0.4c0.6,0.1,1,0.3,1.3,0.3l0.5,0.1
	c-1.1-0.8-2.3-1.5-3.6-1.8c-2.5-0.7-5-0.6-7.6-0.4c-2.3,0.2-4.7,0.3-6.9,0.1c1.7-0.5,3.2-0.8,4.7-1.1c2-0.3,3.7-0.4,4.9-0.5l1.9,0
	c-2.6-1-5.6-1.3-8.2-0.9c-2.7,0.3-5.1,1.2-6.9,1.9c-1.9,0.7-3.5,1.3-4.7,1.5c-0.6,0.1-1,0.2-1.4,0.3L13.8,16.3z M14.1,35.3
	c3-2.1,5-5.1,6.1-7.6c0.5-1,0.8-2,1.1-3.1c0.2-0.8,0.3-1.2,0.3-1.2c-2.4,2.8-4.1,5.7-5.4,8c-0.3,0.6-0.6,1.1-0.9,1.6
	C14.8,33.7,14.4,34.5,14.1,35.3z M15.7,38c2.6-2.5,4.6-5.6,5.5-8.2c1-2.5,1.4-4.4,1.4-4.4c-2.5,2.8-4,6-5.3,8.3
	C16.2,36.2,15.7,38,15.7,38z M19.3,38.6c2.2-2.2,3.6-4.8,4.4-7.1c0.4-1.1,0.5-2.1,0.7-2.7c0.1-0.7,0.1-1.1,0.1-1.1
	c-2,2.5-3.3,5.1-4.1,7.2C19.6,37,19.3,38.6,19.3,38.6z M73.4,30.2c-1.8-3-4.7-5.1-6.9-6.3c-1.1-0.6-2-1.2-2.7-1.6
	c-0.7-0.4-1.1-0.6-1.1-0.6c1,1.6,2.4,3,3.7,4.1c0.9,2.2,2.4,4.2,3.9,5.8c1.6,1.6,3.2,3,4.7,3.9l1.1,0.7c0.4,0.2,0.7,0.3,1.1,0.5
	c0.7,0.3,1.2,0.6,1.8,0.7c1,0.3,1.6,0.4,1.6,0.4c-2-1.3-3.7-2.8-5.4-4.1c-1.6-1.4-3.2-2.7-4.4-3.9c-0.6-0.6-1.3-1.1-1.8-1.6
	c-0.5-0.5-1-0.9-1.4-1.3c-0.6-0.6-1-0.9-1.1-1.1c1.1,0.9,2.2,1.6,3.1,2.2c0.6,0.3,1,0.6,1.5,0.9C71.9,29.4,72.6,29.9,73.4,30.2z
	 M65.6,19.6c-2.1-1.2-3.9-2.8-6-3.8c-1.1-0.5-2.3-0.9-3.3-1.1c-1-0.2-2-0.4-2.9-0.6c-0.5-0.1-0.9-0.2-1.3-0.2
	c-1.1-0.1-2.1-0.1-3.2-0.1c-1.1,0-1.7,0-1.7,0c2.4,0.9,4.7,1.4,6.8,2.1c0.3,0.1,0.5,0.1,0.8,0.2c3.7,2.8,7.7,4.7,10.7,6.4
	c0.4,0.2,0.7,0.4,1.1,0.5c1.3,0.7,2.6,1.5,3.9,2.1c-2.9-3.5-7-6-10.2-7.2c-1.4-0.6-2.9-1.1-4.3-1.5c0.4,0.1,0.8,0.2,1.2,0.3
	c1,0.2,1.8,0.6,2.6,0.9c1.6,0.7,3.1,1.4,4.1,1.6C64.5,19.5,65,19.5,65.6,19.6z M18.2,12.6c4.9-1.7,9.9-2.4,13.6-2
	c1.9,0.2,3.4,0.6,4.5,1c0.5,0.2,0.9,0.4,1.2,0.5l0.4,0.2c-0.9-0.9-2.1-1.7-3.3-2.3C33.5,9.4,32.2,9,31,8.8c-2.6-0.3-5,0-6.9,0.6
	c-1.9,0.6-3.4,1.4-4.4,2C19.2,11.8,18.7,12.2,18.2,12.6z M27.3,32.2l-0.4-0.1c0.2-0.5,0.4-0.9,0.5-1.3c0.2,0.2,0.3,0.3,0.5,0.5
	C27.7,31.6,27.5,31.9,27.3,32.2z M30.1,32.9c-0.5-0.1-1-0.2-1.5-0.3l0.2-0.5C29.3,32.3,29.7,32.6,30.1,32.9z M25.5,35.3
	c-0.1,0-0.2,0-0.4,0c0.2-0.2,0.3-0.4,0.5-0.7l0.2,0.1L25.5,35.3z M26.4,33.7l-0.3,0c0.2-0.3,0.3-0.6,0.5-0.9l0.3,0.1
	C26.7,33.2,26.5,33.4,26.4,33.7z M28.6,33.7l-0.4,0l0.1-0.1L28.6,33.7z M24.9,36.3c-0.3,0-0.5,0.1-0.8,0.1c0.1-0.2,0.3-0.3,0.4-0.5
	l0.5,0.1L24.9,36.3z M35.7,32.3c-1.3-0.6-2.6-1-3.6-1.3c-1-0.3-1.9-0.6-2.5-0.8l0-0.1c1.3,0.3,2.7,0.6,3.9,0.9
	C34.2,31.5,34.9,31.9,35.7,32.3z M29.3,30.8c0.5,0.3,0.9,0.6,1.4,0.9l-0.2-0.1c-0.5-0.2-1-0.4-1.4-0.5L29.3,30.8z M28.3,30
	c0.1,0.1,0.3,0.2,0.4,0.4c-0.1,0.2-0.2,0.3-0.4,0.5c-0.3-0.1-0.5-0.2-0.8-0.4c0.1-0.2,0.1-0.5,0.2-0.7L29,30l-0.1,0.1
	C28.5,30,28.3,30,28.3,30z M80.9,45.6c1.4,1.2,2.8,2.7,3.7,4.4c0.7,1.4,1.1,2.7,1.3,3.6c0.1,0.5,0.2,0.9,0.2,1.1l0.1,0.4
	c0.2-1.2,0.2-2.3,0.1-3.4c-0.2-1.1-0.5-2.2-1-3.1c-1-1.9-2.5-3.2-4.3-4.4c2.2,1.2,4.5,2.5,7,3c0.9,0.2,1.6,0.2,2.1,0.1l0.7-0.1
	c-2.1-0.1-3.8-1-5.5-2.1c-2.5-1.6-4.9-3.5-7.8-4.3c-0.9-0.2-1.8-0.4-2.7-0.6l-4.8-1.1c-1.5-0.3-2.8-0.7-4-1.1
	c-1.2-0.3-2.4-0.7-3.6-1c0.3,0,0.6,0.1,0.8,0.1c0.4,0,0.8,0.1,1.2,0.1c0.8,0,1.5,0.1,2.2,0.1c0.7,0,1.3,0,1.8,0
	c0.9,0,1.8,0.1,2.7,0.1c-1.6-1-3.5-1.6-5.2-1.8c-0.9-0.1-1.7-0.2-2.5-0.2c-0.7-0.1-1.4,0-2.1-0.2c-0.6-0.1-1.2-0.1-1.8-0.3
	c-0.5-0.1-1-0.2-1.4-0.3c-0.8-0.2-1.2-0.3-1.2-0.3c0.3,0.3,0.6,0.5,1,0.8c-4.5,2.4-7.6,7.1-7.6,12.6c0,7.9,6.4,14.3,14.3,14.3
	c5.5,0,10.3-3.1,12.6-7.7l0,0.1c-0.3,1.9-0.9,3.5-1.4,4.7c-0.2,0.6-0.6,1.2-0.9,1.8c1.6-1.6,2.7-3.7,3.3-5.6l-0.2,1.1
	c-0.1,0.4-0.2,0.8-0.3,1.2c-0.2,0.8-0.4,1.5-0.7,2l-0.7,1.7c1.9-2.1,3-4.7,3.4-7.1c0.2-1.2,0.3-2.4,0.2-3.5c0-0.2,0-0.5,0-0.7
	c0.6,3.5,0,7-1.4,10.3c-0.2,0.6-0.5,1-0.6,1.3L78,62c0.9-1.1,1.8-2.3,2.4-3.6c0.6-1.3,1.1-2.6,1.3-3.9l0-0.1c0,1.5-0.2,2.8-0.4,3.7
	L81.1,60c1.2-2.4,2-4.8,2-7.2c0-0.2,0-0.4,0-0.6c0.5,1.4,0.8,2.9,0.7,4.4c0,0.5-0.1,0.9-0.1,1.2l-0.1,0.4c0.6-1.1,1-2.2,1.1-3.4
	c0.1-1.2-0.1-2.3-0.4-3.4c-0.6-2-1.7-3.7-2.9-5.3C81.1,45.9,81,45.7,80.9,45.6z M127,8.4c-0.4,0-0.8,0-1.2-0.1
	c-0.8-0.1-1.6-0.2-2.5-0.3v0l-8.7-1.3c-0.2,0-0.4,0-0.7-0.1c-2-0.1-4-0.3-5.9-0.5c-1.8-0.1-3.6,0-5.4,0c-1.3,0-2.7,0.1-4.2,0.2
	c-0.3,0-0.7,0.1-1.3,0.1C95,6.7,93.2,6.8,91.3,7c-8.7,1-17.4,2.1-26.2,2c-3.2,0-6.1-0.2-8.7-0.5c-2.4-0.3-4.7-0.7-6.6-1.1
	c-2.3-0.5-4.3-1.1-5.8-1.6l0,0c-0.6-0.2-1.2-0.4-1.9-0.7c-1.7-0.6-9.3-2.1-12.4-2.8c-0.9,0.1-1.8,0.1-2.7,0.3
	c2.3,0.3,4.6,0.9,6.9,1.5l-1.5-0.2c-1-0.1-2.4-0.3-4.3-0.5c-1.4-0.1-3.1-0.2-4.9,0c-0.4,0.1-0.9,0.2-1.3,0.3l0.4-0.2
	c-0.6,0.1-1.1,0.2-1.7,0.4c-1,0.4-1.9,0.7-2.9,1.1l-2,0.9c-0.7,0.3-1.4,0.6-2.1,1c-0.7,0.4-1.4,0.7-2.1,1.1L9.2,9.3
	C8.4,9.8,7.7,10.3,7,10.7c-0.7,0.5-1.3,1-1.7,1.7c-0.2,0.2-0.3,0.5-0.4,0.8c0,0-0.1,0.2-0.1,0.3c-0.2,0.4-0.3,0.8-0.3,1.1
	c0,0.4,0.2,0.8,0.4,1.2c-0.1,0.1,0.4-0.3,0.8-0.6c0.5-0.3,0.9-0.5,1.3-0.8c2.7-1.5,5.3-3.1,8.2-4.2c2-0.8,4.1-1.2,6.2-1.6
	c4.2-0.7,8.6-0.9,12.8,0.3l-1.5-0.2c-0.5-0.1-1.1-0.1-1.9-0.1c-0.7,0-1.6,0-2.5,0.1c-1.9,0.1-4.1,0.5-6.7,1l-2,0.5
	c-0.7,0.2-1.3,0.4-2,0.6c-1.3,0.5-2.7,1.1-4.1,1.8c-1.4,0.7-2.8,1.6-4.3,2.5l-2.2,1.4c-0.1,0.1-0.2,0.1-0.3,0.2l-0.8,0.6
	c0,0-0.1,0.1-0.2,0.1c-1.1,1.2-1.8,2.8-2.3,4.3c-0.2,0.8-0.3,1.6-0.4,2.6c-0.1,0.9-0.3,2-0.7,3.1c-0.2,0.6-0.4,1-0.5,1.5
	c-0.4,1.2-0.6,2.9,0.6,3.7c0.8,0.5,1.7,0.6,2.7,0.2c1-0.3,2.1-1,3-1.8c2.2-1.7,4.3-3.9,6.3-6.2c-1.5,0.9-3.3,1.6-5.2,1.8
	c0.8-0.7,1.6-1.3,2.5-1.9c0.7-0.6,1.4-1.1,2.1-1.6c0.5-0.3,1.1-0.8,1.6-1.2c1.2-0.8,2.4-1.7,3.9-2.4c0,0-0.5,0.9-0.6,0.9
	c-0.2,0.3-0.4,0.6-0.7,1c-0.2,0.2-0.4,0.5-0.6,0.8c-0.6,0.8-1.1,1.6-1.7,2.3c0.3-0.4,0.7-0.8,1.1-1.1c0,0-0.3,1.2-1,3
	c1-1.5,2.2-3,3.6-4.4c0,0-0.6,2-2,4.7c-1.3,2.8-3.8,6-6.8,8.7c0,0,0.7-1.7,2-4.1c-0.8,0.8-1.8,1.5-3,1.9c0,0,0.2-0.3,0.6-0.9
	c0.2-0.2,0.4-0.6,0.7-1l0.8-1.3c0.5-0.8,1-1.7,1.7-2.6c-0.8,1-1.7,2-2.7,3.1c-1.9,2-5.1,4.7-8.1,4c-0.8-0.2-1.4-0.5-2-1.1
	c-0.6-0.6-1-1.4-1-2.2c-0.2-1.4,0.3-2.9,0.9-4.2c0.3-0.5,0.5-1.1,0.6-1.7c0.3-1.2,0.5-2.6,1-4c0.6-1.3,1.3-2.6,2.3-3.6
	c-0.4,0-0.8-0.2-1.1-0.5c-0.4-0.4-0.8-1.1-0.9-1.7c-0.3-0.9,0.1-1.8,0.4-2.7c0.1-0.2,0.2-0.4,0.3-0.6c0.1-0.2,0.3-0.5,0.4-0.7
	c0.1-0.2,0.3-0.5,0.5-0.7c0.7-0.9,1.6-1.4,2.5-2c0.8-0.6,1.7-1,2.6-1.5c0.9-0.5,1.8-0.9,2.7-1.4c0.9-0.4,1.9-0.9,2.8-1.3
	c1-0.4,1.9-0.8,2.9-1.1c1-0.3,2-0.7,3.1-0.9c1.1-0.2,2.3-0.3,3.5-0.2C26,1.9,27.9,1.3,30.1,1c3.7-0.9,11.2-1,13.2-0.5l2,0.5
	c3.8,1,7.7,1.6,11.6,1.9l0,0c2.5,0.2,5.2,0.3,8.1,0.3c2.9,0,6.1-0.2,9.4-0.5h0v0C78,2.4,81.5,2,85,1.6c2.8-0.3,5.7-0.7,8.6-1v0
	l4.2-0.3c1.6-0.1,3.3-0.3,4.9-0.2c1.9,0,3.8,0,5.7,0.1l0.1,0v0l5.7,0.5c0.4,0,0.8,0.1,1.2,0.1c1.3,0.2,2.8,0.4,4,0.7
	c3,0.5,6.1,1.1,9.2,1.3c0.8,0,1.6,0.1,2.4,0.1L127,8.4z M21,39.2c0.1-0.2,0.1-0.4,0.2-0.6c0.1-0.4,0.3-0.8,0.5-1.2
	c0.2-0.5,0.5-1,0.9-1.5l2.7-3.9l-0.2-0.1c0,0,0.1,0,0.3,0c0.4-0.6,0.8-1.1,1.3-1.7L26.6,30l0.1,0.1c0.1-0.2,0.3-0.3,0.4-0.5
	l-0.2-0.1c0,0,0.1,0,0.4-0.1c0.2-0.3,0.5-0.5,0.7-0.8c0,0,0,0.2-0.2,0.7c0.4-0.1,0.8-0.2,1.2-0.2c0.2,0,0.4,0,0.7,0l0.1-0.1l0,0.1
	c0.1,0,0.2,0,0.3,0c-1.1-0.7-2.1-1.3-3.1-2c0,0,0.1,0,0.4,0.1c-0.1-0.1-0.3-0.2-0.4-0.4c0.8,0.2,1.5,0.4,2.3,0.6l1,0.3l-0.1-0.1
	c0.7,0.1,1.3,0.3,2,0.4c0.2,0,0.4,0.1,0.7,0.1c-1.6-0.7-3.1-1.6-4.4-2.6l0,0c0.6,0.1,1.2,0.2,1.9,0.4l0.8,0.1
	c0.6,0.1,1.2,0.2,1.9,0.2l0.5,0.1c-0.6-0.2-1.1-0.4-1.6-0.7c1.3-0.1,2.7,0.1,4,0.1c0.5,0,1.1,0.1,1.7,0.1c-2.4-0.4-4.9-1.1-7.1-2.1
	c0,0,0.5,0,1.4,0.1c0.3,0,0.5,0,0.9,0.1c-1-0.5-2-1-2.8-1.6c0,0,0.5,0.1,1.3,0.2c0.3,0.1,0.7,0.1,1.1,0.3c1.6-0.1,3.3,0,4.9,0.2
	c-0.5-0.2-1-0.4-1.5-0.7c0,0,0.8-0.1,2.2,0c-1.1-0.4-2.3-0.9-3.4-1.5c-1.9-0.3-3.6-0.8-5.3-1.8c-1-0.6-2-1.4-2.8-2.4l0.4,0.2
	c0.3,0.1,0.6,0.3,1.1,0.5c0.9,0.4,2.3,0.9,4,1.3c1.7,0.4,3.7,0.6,5.9,0.9c2.2,0.3,4.6,0.6,6.9,1.4c-1.8,0.1-3.7,0.2-5.5,0.2
	c1.3,0.3,2.6,0.5,3.9,0.8c3.1,0.5,6.5,0.9,9.2,2.7c-0.6-0.1-1.2-0.3-1.8-0.4c-1.1-0.2-2.8-0.3-4.7-0.4c-0.4,0-0.8,0-1.2-0.1
	c0.4,0.1,0.8,0.3,1.1,0.5c0.4,0.1,0.8,0.2,1.3,0.2l1.2,0.2c0.4,0.1,0.9,0.1,1.3,0.2c1.9,0.3,4.1,0.5,6.4,1c2.4,0.5,4.9,1.4,7.1,2.8
	c0,0-0.7-0.1-1.8-0.4c-0.5-0.1-1.2-0.2-2-0.3c-0.5-0.1-1.1-0.2-1.6-0.2l2.1,0.6c0.9,0.2,2,0.6,3,1c2,1,3.8,2.4,5.4,4.1
	c0,0-0.5-0.2-1.4-0.6c-0.4-0.2-1-0.5-1.6-0.7l-2.1-0.9c-0.4-0.1-0.8-0.3-1.2-0.5l-1.3-0.4C60,30,59,29.8,58,29.4c-1-0.4-2-0.9-3-1.4
	c-0.6-0.3-1.1-0.6-1.7-0.9c-0.9-0.1-1.8-0.3-2.7-0.5c-1.5-0.3-3-0.8-4.5-1.5c-0.6-0.1-1.2-0.2-1.9-0.3c0.8,0.4,1.5,0.8,2.2,1.3
	l-1.4-0.3c-1.3-0.3-2.5-0.5-3.8-0.7c2.3,0.4,4.8,1.1,7.4,2.1L47,26.9c-0.7-0.1-1.6-0.1-2.7-0.2l0.1,0.1c0.4,0.1,0.8,0.2,1.2,0.3
	c0,0-0.2,0-0.5,0.1l0.3,0.2l-1.1-0.1c-0.8,0.1-2,0.2-3.4,0.2c-0.3,0-0.6,0-1,0c1.3,0.4,2.7,1,3.9,1.9L42.5,29
	c-0.4-0.1-1-0.2-1.6-0.3c-0.6-0.1-1.3-0.2-2.1-0.3l-0.5-0.1c2.5,0.8,5,1.6,7.4,2.7c0,0-2-0.3-4.9-0.8c0.3,0.2,0.7,0.4,1,0.6
	c0,0-0.4-0.1-1.1-0.2c-1.1-0.2-2.2-0.3-3.2-0.4c0.8,0.4,1.7,0.9,2.5,1.5c0,0-1-0.2-2.6-0.6c0.6,0.4,1.3,0.8,1.9,1.3
	c-0.5-0.1-0.9-0.3-1.4-0.4c1.6,1.2,3.1,2.8,4.4,4.6c-0.9-0.7-1.8-1.3-2.7-2c-1.3-0.3-2.6-0.7-3.9-1.1c1.4,0.7,2.9,1.5,4.3,2.5
	c0,0-0.8-0.2-2.1-0.6c0.5,0.3,1.1,0.7,1.6,1.1L38,36.4c-0.8-0.2-1.8-0.5-3-0.8c-1.3,0-2.6-0.1-3.9-0.3c2.3,0.5,4.7,1.2,6.9,2.2
	c0,0-0.5,0-1.4-0.1c-0.6,0-1.3-0.1-2.2-0.2c0.9,0.3,1.7,0.7,2.6,1 M24.5,37.1l0.1-0.2c-0.2-0.1-0.5-0.1-0.7-0.2
	c-0.6,0.6-1.2,1.2-1.9,1.8 M75.6,42.2c0.9,1.7,1.4,3.6,1.4,5.7c0,6.7-5.5,12.2-12.2,12.2s-12.2-5.5-12.2-12.2
	c0-5.1,3.2-9.5,7.7-11.3c3.7,1.9,7.4,3.6,11.2,4.7C72.8,41.6,74.3,41.9,75.6,42.2z"/>
<path class="st0" d="M80.9,86.2c-0.1,2.3,0.9,4.7,2.3,6.3c0.7,0.8,1.5,1.3,2.1,1.5c0.4,0.1,0.6,0.1,1,0.2c-1.1-0.6-1.8-1.8-2.4-2.8
	l-1.5-2.6c-0.4-0.8-0.8-1.4-1.1-1.8C81,86.4,80.9,86.2,80.9,86.2 M82.6,86c0,2.3,1.2,4.7,2.4,6.3c0.6,0.8,1.3,1.4,1.8,1.7
	c0.3,0.2,0.5,0.3,0.7,0.3l0.2,0.1c-0.5-0.6-0.8-1.1-1.1-1.7c-0.8-1.5-1.5-2.9-2.4-4.3C83.3,86.9,82.6,86,82.6,86z M109,86.2
	c-1.3,1.8-2.2,4-3.1,5.6c-0.5,0.8-1,1.4-1.4,1.7c-0.3,0.2-0.5,0.3-0.8,0.5c1.4,0.2,2.7-0.9,3.5-1.9c1.1-1.4,1.7-3.3,1.8-5.1
	C109.1,86.4,109,86.2,109,86.2z M107.3,86c-1.4,1.8-2.4,4-3.3,5.7c-0.4,0.8-0.9,1.5-1.2,2c-0.2,0.2-0.3,0.4-0.4,0.5l-0.2,0.2
	c0.7-0.1,1.4-0.6,1.9-1c1.3-1.2,2.2-2.7,2.8-4.4C107.4,87.2,107.3,86,107.3,86L107.3,86z M95.3,110c2.4-5.5,8.1-19.1,8.1-19.1v0
	c1.4-1.7,2.3-3.4,2.9-4.7c0.8-1.8,1-3.1,1-3.1c-1.8,1.6-3.1,4-4,5.9l-0.1-1.1c1.2-1.5,2.2-3.2,2.6-5.2c0.1-0.4,0.1-0.7,0.1-1
	c0-0.5,0-0.8,0-0.8c-1.1,1.6-2.1,3.3-3,4.9c-0.1-0.9-0.2-1.8-0.3-2.6c0.7-1.3,1.1-2.5,1.4-3.5c0.3-0.9,0.6-1.8,0.7-2.7
	c-1.1,1-2,2.3-2.6,3.7c-0.1-0.6-0.2-1.3-0.4-1.8c0-0.1,0.1-0.2,0.1-0.3c0.4-1.5,1-2.7,1.3-3.8c0.1-0.6,0.3-1,0.5-1.5
	c0.2-0.7,0.5-1.4,0.6-2.2c-0.5,0.5-1,1.1-1.4,1.7c-0.2,0.3-0.4,0.6-0.6,1c-0.4,0.8-0.8,1.6-1.1,2.5c-0.2-0.6-0.3-1.2-0.5-1.7
	c0.5-1.1,1-2.2,1.4-3c0.2-0.5,0.4-0.9,0.5-1.2c0.2-0.4,0.3-0.7,0.4-0.9c0.3-0.5,0.4-0.8,0.4-0.8c-1.3,0.8-2.4,2-3.1,3.4
	c0.3-1.2,0.4-2.4,0.5-3.3c0.1-2-0.1-3.3-0.1-3.3c-0.9,1.7-1.3,3.7-1.6,5.5c-0.3-0.5-0.6-1-0.9-1.4c0.1-1,0.2-1.9,0.3-2.7
	c0.1-1,0.1-1.9,0.1-2.5c0-0.6,0-0.9,0-0.9c-0.6,1-1,2.2-1.3,3.3l0.1-0.9c0-1.7-0.3-2.9-0.3-2.9c-0.7,1.3-1.1,2.9-1.3,4.4
	c-0.6-0.2-1.2-0.2-1.7,0c-0.1-0.7-0.2-1.2-0.4-1.8C93.3,64,92.7,63,92.7,63c-0.2,1.2-0.2,2.5-0.1,3.7l0-0.2c-0.3-1-0.7-1.8-0.9-2.3
	c-0.3-0.5-0.4-0.8-0.4-0.8c-0.1,2,0.2,4.2,0.5,6c-0.3,0.4-0.6,0.8-0.9,1.4c-0.2-0.9-0.3-1.7-0.6-2.4c-0.6-1.9-1.2-3.1-1.2-3.1
	c-0.3,2.2,0,4.7,0.6,6.7c-0.5-0.8-1-1.6-1.7-2.2c-0.3-0.3-0.6-0.5-0.8-0.7c-0.5-0.3-0.8-0.5-0.8-0.5c1,2,2,4.1,2.8,5.9
	c-0.2,0.5-0.4,1.1-0.5,1.7c-0.3-0.8-0.7-1.4-1-2.1c-0.3-0.5-0.6-1-0.9-1.4c-0.3-0.4-0.5-0.7-0.8-1c-0.4-0.5-0.7-0.8-0.7-0.8
	c0.2,0.7,0.4,1.4,0.7,2.1c0.1,0.3,0.3,0.7,0.4,1c0.1,0.4,0.2,0.7,0.3,1c0.2,0.7,0.5,1.4,0.8,2c0.2,0.5,0.3,1,0.5,1.5
	c-0.1,0.6-0.3,1.2-0.4,1.9c-0.2-0.6-0.5-1.1-0.8-1.5c-0.5-0.8-1-1.3-1.3-1.6c-0.4-0.4-0.6-0.5-0.6-0.5c0.4,2.2,1.4,4.2,2.2,6
	l0.1,0.3c-0.1,0.8-0.2,1.7-0.3,2.6c-0.6-1.2-1.4-2.3-2.1-3.4c-0.2-0.3-0.4-0.5-0.5-0.8c-0.3-0.4-0.5-0.7-0.5-0.7
	c-0.1,2.5,1.4,5,2.9,6.9L86.7,89c-0.6-1.4-1.4-2.6-2-3.5c-1.2-1.6-2.1-2.4-2.1-2.4c0.5,2.4,1.9,4.7,3.1,6.5c0.9,1.3,1.7,2.3,2.1,2.7
	c1.3,1.8,3.2,5.6,5,11"/>
<ellipse class="st2" cx="125.5" cy="48.4" rx="13" ry="13"/>
<ellipse class="st3" cx="125.5" cy="48.4" rx="13" ry="13"/>
<path class="st0" d="M117.8,49.3c0.7,3.3,3.6,5.7,7.1,5.7c4,0,7.2-3.2,7.2-7.2s-3.2-7.2-7.2-7.2c-2.1,0-4,0.9-5.3,2.3
	c1.1,0.6,1.8,1.7,1.8,3C121.4,47.9,119.8,49.5,117.8,49.3"/>
<path class="st2" d="M71.4,41.2c-3.7-1.1-7.5-2.7-11.2-4.7c-4.5,1.8-7.7,6.2-7.7,11.3c0,6.7,5.5,12.2,12.2,12.2s12.2-5.5,12.2-12.2
	c0-2.1-0.5-4-1.4-5.7C74.3,41.9,72.8,41.6,71.4,41.2 M57.6,47.9c0-4,3.2-7.2,7.2-7.2c2.1,0,4,0.9,5.3,2.3c-1.1,0.6-1.8,1.7-1.8,3
	c0,2,1.7,3.5,3.6,3.4c-0.7,3.3-3.6,5.7-7.1,5.7C60.8,55.1,57.6,51.9,57.6,47.9z"/>
<path class="st0" d="M156.5,31h-0.8v-4.9H153V31h-0.8v-5.5h4.3L156.5,31L156.5,31z M156.6,10.8v5.5h-0.8v-3.8c0-0.1,0-0.2,0-0.4
	c0-0.1,0-0.3,0-0.4c0,0.1-0.1,0.2-0.1,0.3c-0.1,0.1-0.1,0.2-0.2,0.3l-2.5,3.7c0,0.1-0.1,0.1-0.2,0.2s-0.1,0.1-0.2,0.1h-0.6v-5.5h0.8
	v3.8c0,0.1,0,0.2,0,0.4c0,0.1,0,0.3,0,0.4c0-0.1,0.1-0.2,0.1-0.3c0.1-0.1,0.1-0.2,0.2-0.3l2.5-3.7c0-0.1,0.1-0.1,0.1-0.2
	c0.1-0.1,0.1-0.1,0.2-0.1C156,10.8,156.6,10.8,156.6,10.8z M156.7,18v5.5H156v-3.9c0-0.1,0-0.1,0-0.2c0-0.1,0-0.1,0-0.2l-1.1,3.4
	c0,0.1-0.2,0.2-0.3,0.2h-0.1c-0.1,0-0.2-0.1-0.3-0.2l-1.3-3.4c0,0.1,0,0.3,0,0.4v3.9h-0.7V18h0.6c0.1,0,0.1,0,0.2,0
	c0,0,0.1,0,0.1,0.1l1.2,3.3c0,0.1,0.1,0.1,0.1,0.2c0,0.1,0.1,0.1,0.1,0.2c0.1-0.2,0.1-0.3,0.2-0.4l1.1-3.3c0-0.1,0.1-0.1,0.1-0.1
	c0,0,0.1,0,0.2,0C156.1,18,156.7,18,156.7,18z M156,75.9c0-0.3,0-0.6-0.1-0.9c-0.1-0.3-0.2-0.5-0.4-0.7c-0.2-0.2-0.4-0.3-0.6-0.4
	c-0.2-0.1-0.5-0.1-0.8-0.1s-0.5,0-0.8,0.1c-0.2,0.1-0.4,0.2-0.6,0.4c-0.2,0.2-0.3,0.4-0.4,0.7c-0.1,0.3-0.1,0.6-0.1,0.9
	c0,0.3,0,0.6,0.1,0.9c0.1,0.3,0.2,0.5,0.4,0.7c0.2,0.2,0.4,0.3,0.6,0.4c0.2,0.1,0.5,0.1,0.8,0.1s0.6,0,0.8-0.1
	c0.2-0.1,0.4-0.2,0.6-0.4c0.2-0.2,0.3-0.4,0.4-0.7C156,76.5,156,76.2,156,75.9z M156.9,75.9c0,0.4-0.1,0.8-0.2,1.1
	c-0.1,0.3-0.3,0.6-0.6,0.9c-0.2,0.2-0.5,0.4-0.9,0.6c-0.3,0.1-0.7,0.2-1.1,0.2c-0.4,0-0.8-0.1-1.1-0.2c-0.3-0.1-0.6-0.3-0.9-0.6
	c-0.2-0.2-0.4-0.5-0.6-0.9s-0.2-0.7-0.2-1.1c0-0.4,0.1-0.8,0.2-1.1c0.1-0.3,0.3-0.6,0.6-0.9c0.2-0.2,0.5-0.4,0.9-0.6
	s0.7-0.2,1.1-0.2c0.4,0,0.8,0.1,1.1,0.2s0.6,0.3,0.9,0.6c0.2,0.2,0.4,0.5,0.6,0.9C156.8,75.1,156.9,75.5,156.9,75.9z M156.3,71.3
	h-0.8v-4.9h-2.7v4.9H152v-5.5h4.3V71.3L156.3,71.3z M162.7,39.8c-2.2-2.2-5.2-3.5-8.5-3.5s-6.4,1.4-8.5,3.5
	c-2.2,2.2-3.5,5.2-3.5,8.5s1.4,6.4,3.5,8.5c2.2,2.2,5.2,3.5,8.5,3.5s6.4-1.4,8.5-3.5c2.2-2.2,3.5-5.2,3.5-8.5S164.9,42,162.7,39.8z
	 M154.1,34.5c3.8,0,7.3,1.6,9.8,4.1c2.5,2.5,4.1,6,4.1,9.8s-1.6,7.3-4.1,9.8c-2.5,2.5-6,4.1-9.8,4.1c-3.8,0-7.3-1.6-9.8-4.1
	c-2.5-2.5-4.1-6-4.1-9.8s1.6-7.3,4.1-9.8C146.8,36.1,150.3,34.5,154.1,34.5z M156.5,8.9h-0.8V4h-1.7c0,0.7-0.1,1.3-0.1,1.8
	c-0.1,0.5-0.1,1-0.2,1.3c-0.1,0.4-0.2,0.7-0.3,0.9c-0.1,0.2-0.2,0.4-0.4,0.5c-0.1,0.1-0.3,0.2-0.4,0.3s-0.3,0.1-0.5,0.1
	c-0.3,0-0.5-0.1-0.5-0.2V8.2h0.3c0.1,0,0.2,0,0.3-0.1c0.1,0,0.2-0.1,0.3-0.2c0.1-0.1,0.2-0.3,0.3-0.5c0.1-0.2,0.2-0.5,0.2-0.9
	c0.1-0.4,0.1-0.8,0.2-1.3c0-0.5,0.1-1.2,0.1-1.9h3.3L156.5,8.9L156.5,8.9z"/>
</svg>
