<?xml version="1.0" encoding="utf-8"?>
<!-- Generator: Adobe Illustrator 24.0.2, SVG Export Plug-In . SVG Version: 6.00 Build 0)  -->
<svg version="1.1" id="Слой_1" xmlns="http://www.w3.org/2000/svg" xmlns:xlink="http://www.w3.org/1999/xlink" x="0px" y="0px"
	 viewBox="0 0 215 100" style="enable-background:new 0 0 215 100;" xml:space="preserve">
<style type="text/css">
	.st0{fill:#363636;}
	.st1{fill:#D00E00;}
</style>
<g>
	<path class="st0" d="M40.5,57.9h-4.9V42.5h-7.3v15.4h-4.9V38.8h17.2L40.5,57.9L40.5,57.9z"/>
	<path class="st0" d="M60.5,44.8c0,0.9-0.2,1.7-0.4,2.5c-0.3,0.8-0.7,1.5-1.3,2.1c-0.8,0.8-1.6,1.3-2.6,1.7
		c-0.9,0.4-2.1,0.6-3.5,0.6h-3.1v6.2h-4.9V38.8h8.1c1.2,0,2.2,0.1,3.1,0.3c0.8,0.2,1.6,0.5,2.2,0.9c0.8,0.5,1.4,1.2,1.8,1.9
		C60.3,42.7,60.5,43.7,60.5,44.8z M55.4,44.9c0-0.5-0.1-1-0.4-1.4c-0.3-0.4-0.6-0.7-1-0.8c-0.5-0.2-1-0.3-1.5-0.3s-1.1,0-2,0h-0.8
		V48h1.4c0.8,0,1.5-0.1,2.1-0.2c0.5-0.1,1-0.3,1.4-0.6c0.3-0.3,0.5-0.6,0.7-1C55.3,45.9,55.4,45.5,55.4,44.9z"/>
	<path class="st0" d="M77.4,57.9H63.6V38.8h13.8v3.7h-8.9v3.3h8.3v3.7h-8.3v4.7h8.9V57.9z"/>
	<path class="st0" d="M100.1,57.8h-4.9V42.4h-5.5c0,0.8-0.1,1.5-0.1,2s-0.1,1.1-0.1,1.9c-0.1,1.7-0.3,3.2-0.5,4.4s-0.5,2.1-0.8,2.9
		c-0.3,0.8-0.6,1.4-0.9,1.9s-0.7,0.9-1,1.2c-0.4,0.4-0.9,0.7-1.6,1c-0.6,0.2-1.3,0.4-2,0.4c-0.4,0-0.9,0-1.3-0.1
		c-0.5,0-0.8-0.1-0.9-0.1v-4.3h0.2c0.1,0,0.2,0,0.3,0c0.1,0,0.2,0,0.3,0c0.5,0,0.8,0,1.1-0.1c0.2-0.1,0.4-0.2,0.6-0.3
		c0.7-0.6,1.1-1.5,1.3-2.7c0.2-1.2,0.4-3,0.5-5.2c0.1-0.9,0.1-1.9,0.1-2.9c0-1.1,0.1-2.3,0.1-3.6h15v19H100.1z"/>
	<path class="st0" d="M120.3,51.8c0,0.9-0.2,1.8-0.5,2.6c-0.4,0.8-0.8,1.4-1.5,1.9c-0.8,0.6-1.6,1.1-2.4,1.3S114,58,112.8,58H104
		V38.8h4.9v7.1h4c1.3,0,2.4,0.1,3.3,0.3s1.6,0.5,2.3,1.1c0.7,0.5,1.1,1.2,1.4,1.9C120.1,50,120.3,50.8,120.3,51.8z M115.2,51.9
		c0-0.3,0-0.6-0.1-0.9c-0.1-0.3-0.2-0.5-0.4-0.8c-0.2-0.2-0.5-0.4-1-0.6c-0.4-0.1-1-0.2-1.7-0.2h-3.1v4.9h3.1c0.5,0,1-0.1,1.5-0.2
		c0.4-0.1,0.8-0.3,1-0.5s0.4-0.5,0.5-0.7C115.1,52.6,115.2,52.2,115.2,51.9z"/>
	<path class="st0" d="M170.1,48.3c0,3.1-0.9,5.5-2.6,7.3c-1.7,1.8-4.2,2.7-7.3,2.7s-5.5-0.9-7.2-2.7s-2.6-4.2-2.6-7.3
		s0.9-5.5,2.6-7.3c1.7-1.8,4.2-2.7,7.2-2.7c3.1,0,5.5,0.9,7.2,2.7C169.2,42.8,170.1,45.3,170.1,48.3z M163.6,53.2
		c0.5-0.6,0.8-1.3,1.1-2.1c0.2-0.8,0.3-1.7,0.3-2.8s-0.1-2.1-0.4-2.9c-0.3-0.8-0.6-1.5-1-2s-0.9-0.9-1.5-1.1
		c-0.6-0.2-1.2-0.3-1.8-0.3s-1.2,0.1-1.8,0.3s-1.1,0.6-1.5,1.1s-0.8,1.1-1,2c-0.3,0.8-0.4,1.8-0.4,2.9c0,1.1,0.1,2.1,0.4,2.9
		c0.3,0.8,0.6,1.5,1,2s0.9,0.9,1.5,1.1s1.2,0.4,1.8,0.4s1.2-0.1,1.8-0.4S163.1,53.7,163.6,53.2z"/>
	<path class="st0" d="M192.9,42.6c0.8,0.6,1.3,1.4,1.7,2.3c0.4,0.9,0.6,2,0.6,3.2s-0.2,2.2-0.6,3.2c-0.4,0.9-1,1.7-1.8,2.4
		s-1.7,1.2-2.8,1.5c-1,0.4-2.3,0.6-3.7,0.7V58h-4.9v-2c-1.3-0.1-2.6-0.3-3.7-0.7c-1.1-0.4-2-0.9-2.8-1.5c-0.8-0.7-1.4-1.5-1.8-2.4
		c-0.4-0.9-0.6-2-0.6-3.2s0.2-2.2,0.6-3.1c0.4-0.9,1-1.7,1.7-2.3s1.7-1.1,2.8-1.5s2.4-0.6,3.7-0.7v-2h4.9v2c1.4,0.1,2.7,0.3,3.7,0.6
		C191.2,41.5,192.2,42,192.9,42.6z M181.5,52.8v-9.1c-1.3,0.2-2.2,0.6-2.8,1.4s-1,1.7-1,3s0.3,2.4,0.9,3.2
		C179.2,52,180.1,52.5,181.5,52.8z M190.2,48.1c0-1.2-0.3-2.2-1-3s-1.6-1.2-2.8-1.4v9.1c1.4-0.2,2.4-0.8,2.9-1.5
		C189.9,50.5,190.2,49.5,190.2,48.1z"/>
	<path class="st0" d="M213.9,42.5h-6v15.4H203V42.5h-6v-3.7h16.9V42.5z"/>
	<path class="st1" d="M5.5,32.1h5.9C11.2,31,11,30,10.9,28.9c-0.2-1.7-0.4-3.5-0.4-5.2c-0.1-1.7,0-3.4,0.1-5.1
		c0.3-3.3,1.1-6.5,2.7-8.9c0.8-1.2,1.7-2.2,2.9-3l0.4-0.3l0,0l0,0L17,6.2l1.2-0.6c0.2-0.1,0.4-0.2,0.6-0.3l0.4-0.1
		c0.3-0.1,0.6-0.1,0.9-0.2c2.6-0.6,5.7-0.2,8.5,0.7c0.7,0.2,1.4,0.4,2.1,0.7c0.7,0.3,1.4,0.6,2,0.9C34,8,35.3,8.6,36.6,9.4
		c0.6,0.4,1.2,0.7,1.9,1.1c0.6,0.4,1.2,0.8,1.8,1.2c1.2,0.8,2.3,1.7,3.3,2.5c4.3,3.5,7.8,7.1,10.8,10.5c0.7,0.9,1.5,1.7,2.1,2.5
		c0.7,0.8,1.3,1.6,1.9,2.4c0.6,0.8,1.2,1.5,1.7,2.2h1.7c-0.6-1-1.2-2.1-2-3.3c-0.5-0.8-1.1-1.7-1.7-2.6c-0.6-0.9-1.3-1.8-2-2.7
		c-2.8-3.7-6.1-7.8-10.3-11.7c-1.1-1-2.1-2-3.3-2.9c-0.6-0.5-1.2-0.9-1.8-1.4s-1.3-0.9-1.9-1.3c-2.6-1.8-5.5-3.4-8.7-4.6
		c-3.3-1.2-6.9-2-11-1.3l-1.6,0.4l-0.8,0.2C16.3,0.9,16.2,1,16,1.1l-1.2,0.5l-0.3,0.1l-0.1,0.1C14.6,1.7,14.1,2,14.1,2H14l-0.7,0.4
		C11.5,3.5,10,5.1,8.9,6.8C6.6,10.2,5.5,14.2,5,18c-0.5,3.9-0.4,7.8,0.1,11.6C5.2,30.5,5.4,31.3,5.5,32.1z"/>
	<path class="st1" d="M75.5,78c0,0.4,0,0.8,0,1.2c-0.2,2.2-0.5,4.5-1.3,6.9c-0.7,2.3-1.8,4.6-3.5,6.4c-0.8,0.9-1.9,1.7-2.9,2.2
		l-1,0.5L66,95.3c-0.6,0.2-1.2,0.3-1.9,0.4c-2.6,0.3-5.4-0.1-8.2-1.1c-5.6-2.1-11-6-15.9-10.6c-5-4.7-9.4-10.2-13.5-16.1
		c-0.8-1.1-1.6-2.3-2.3-3.4h-6.8l1.2,1.9c1,1.6,2.1,3.2,3.1,4.8C26,77.4,31,83,36.4,87.9c5.4,4.8,11.4,8.8,18.1,11
		c3.3,1,6.9,1.5,10.3,0.8c0.9-0.1,1.7-0.4,2.5-0.7l1.3-0.5l1-0.5c1.6-0.9,2.7-2,3.8-3.2c2-2.5,3.1-5.3,3.7-7.9
		c0.6-2.7,0.8-5.2,0.8-7.5c0-0.5,0-0.9-0.1-1.3h-2.3V78z"/>
	<path class="st0" d="M143.2,51.8c-0.2,0.5-0.5,1-0.8,1.4c-0.4,0.5-0.9,0.9-1.5,1.1c-0.6,0.2-1.2,0.4-1.8,0.4s-1.2-0.1-1.8-0.4
		c-0.6-0.2-1.1-0.6-1.5-1.1s-0.8-1.2-1-2c-0.3-0.8-0.4-1.8-0.4-2.9c0-1.1,0.1-2.1,0.4-2.9c0.3-0.8,0.6-1.5,1-2
		c0.5-0.5,1-0.9,1.5-1.1c0.6-0.2,1.1-0.3,1.8-0.3c0.6,0,1.2,0.1,1.8,0.3s1.1,0.6,1.5,1.1c0.3,0.4,0.6,0.9,0.8,1.4h4.9
		c-0.2-1.6-0.8-2.8-1.8-3.8c-1.8-1.8-4.2-2.7-7.2-2.7c-3.1,0-5.5,0.9-7.2,2.7s-2.6,4.2-2.6,7.3s0.9,5.5,2.6,7.3
		c1.7,1.8,4.2,2.7,7.2,2.7c3.1,0,5.5-0.9,7.3-2.7c1-1.1,1.5-2.3,1.8-3.8H143.2z"/>
	<polygon class="st0" points="12,50.5 7.5,50.5 9.8,43.7 7.9,38.8 7.1,38.8 0,57.9 5,57.9 6.3,54 13.4,54 	"/>
	<polygon class="st1" points="7.1,38.8 14.4,57.9 21,57.9 13.3,38.8 	"/>
</g>
</svg>
